<svg version="1.1" id="Layer_1" xmlns="http://www.w3.org/2000/svg" xmlns:xlink="http://www.w3.org/1999/xlink" x="0px" y="0px"
	 width="100%" viewBox="0 0 308 236" enable-background="new 0 0 308 236" xml:space="preserve">
<path fill="#FAFCFE" opacity="1.000000" stroke="none" 
	d="
M185.000000,237.000000 
	C123.333344,237.000000 62.166679,237.000000 1.000016,237.000000 
	C1.000011,158.333344 1.000011,79.666702 1.000005,1.000038 
	C103.666634,1.000025 206.333267,1.000025 308.999939,1.000013 
	C308.999939,79.666626 308.999939,158.333252 308.999969,236.999939 
	C267.833344,237.000000 226.666672,237.000000 185.000000,237.000000 
M32.448624,49.237972 
	C32.341187,49.573093 32.233753,49.908218 32.103848,50.829178 
	C32.088043,51.218929 32.072235,51.608685 31.843311,52.698196 
	C31.761353,53.424313 31.679392,54.150429 31.216915,55.600292 
	C31.232269,58.723106 31.247625,61.845921 31.068476,65.851242 
	C31.140976,68.255524 31.213478,70.659798 31.131975,73.952354 
	C31.182749,76.978294 31.233522,80.004227 31.101934,83.901985 
	C31.164511,86.274811 31.227087,88.647644 31.098799,91.929146 
	C31.172560,95.980934 31.246323,100.032722 31.132439,104.989769 
	C31.114277,112.130676 30.977057,119.274513 31.153242,126.410622 
	C31.203623,128.451263 32.161983,130.469467 32.782913,133.118652 
	C32.984577,133.717926 33.186241,134.317184 32.795921,135.219284 
	C32.659054,135.665207 32.293331,136.192505 32.418739,136.545166 
	C35.680622,145.718246 49.254322,150.179504 56.899975,144.113876 
	C58.967800,142.473404 63.269039,140.424820 60.986176,135.395462 
	C61.075623,135.011383 61.165073,134.627319 61.649788,133.966095 
	C61.873219,133.718857 62.006451,133.430008 62.595646,132.551376 
	C63.020481,131.136398 63.809547,129.721939 63.811508,128.306381 
	C63.825054,118.534355 63.674431,108.762108 63.782421,98.072014 
	C63.863548,91.384186 63.944672,84.696350 64.959846,77.999245 
	C79.561432,77.993057 94.179298,78.360039 108.753418,77.724258 
	C112.503281,77.560677 116.878082,74.991043 119.622597,72.204018 
	C124.449120,67.302711 128.393280,61.490772 132.411774,55.849911 
	C135.172943,51.973999 139.625366,48.880028 139.447250,42.574436 
	C138.077179,41.984856 136.716400,40.909451 135.335541,40.883015 
	C124.845512,40.682201 114.351555,40.686604 103.591721,40.296574 
	C103.106720,40.415436 102.621719,40.534302 101.225418,40.745750 
	C98.488708,40.813961 95.751991,40.882172 92.082932,40.820580 
	C75.710899,40.850819 59.338863,40.881062 42.643536,40.494740 
	C42.078400,40.899944 41.513264,41.305149 40.509296,42.033218 
	C39.973076,42.518326 39.436855,43.003437 38.273357,43.681072 
	C37.794891,44.100380 37.316422,44.519684 36.315819,45.170856 
	C35.865196,45.768661 35.414577,46.366463 35.000084,47.000000 
	C35.000084,47.000000 34.963829,46.964142 34.534081,46.987381 
	C34.534081,46.987381 34.107609,47.045261 33.568298,47.290993 
	C33.324627,47.816410 33.080956,48.341827 32.448624,49.237972 
M244.826096,146.927307 
	C244.874680,151.616898 244.923264,156.306473 244.830109,161.924973 
	C244.778366,168.576401 244.726624,175.227829 244.015839,182.342972 
	C231.913940,182.549347 219.812119,182.760742 207.710068,182.957336 
	C205.624924,182.991211 203.538757,182.962112 201.018051,182.962112 
	C201.018051,173.703613 201.095047,165.245773 200.992661,156.790085 
	C200.916565,150.506821 200.607819,144.226379 200.266052,137.453644 
	C200.210663,137.293030 200.155289,137.132416 200.231812,136.106934 
	C199.560242,132.362076 198.888672,128.617218 198.161911,124.125122 
	C196.105087,115.445114 185.596100,111.642410 176.164612,116.638542 
	C173.489182,119.755829 170.813766,122.873116 167.605240,126.293823 
	C167.644608,127.180870 167.683975,128.067917 167.823990,129.765045 
	C167.900528,130.850204 167.977066,131.935349 167.862793,132.982635 
	C167.862793,132.982635 167.668854,132.997955 167.237701,133.689117 
	C167.155792,156.057892 167.065079,178.426636 167.030533,200.795486 
	C167.029404,201.535782 167.597946,202.276962 168.107941,203.516220 
	C168.132187,203.872223 168.156448,204.228210 168.167709,205.131943 
	C168.376404,205.416779 168.585098,205.701630 169.003036,206.414505 
	C169.003036,206.414505 169.056015,206.887970 169.004135,207.682541 
	C169.195786,208.816055 169.196518,210.024933 169.609406,211.071152 
	C172.847946,219.277603 180.134354,220.881943 187.537994,220.873032 
	C212.440491,220.843033 237.341812,220.260010 262.244934,220.042725 
	C268.966156,219.984085 272.471588,215.351547 276.208801,210.992050 
	C276.527710,210.619995 275.416260,209.021729 275.278992,207.291946 
	C275.560364,205.295425 275.841766,203.298889 276.806396,200.720825 
	C276.857483,192.145309 276.908539,183.569778 277.146729,174.077103 
	C277.092102,169.051071 277.037476,164.025055 277.120697,158.175278 
	C277.069641,156.788040 277.018585,155.400803 277.122559,153.121841 
	C277.071838,150.417999 277.021118,147.714172 277.114105,144.266083 
	C277.073090,143.512238 277.032104,142.758377 277.129974,141.074600 
	C277.079010,133.721039 277.028076,126.367470 277.112000,118.162804 
	C277.072754,116.442566 277.033508,114.722328 277.120331,112.108467 
	C277.063721,109.407181 277.007141,106.705887 277.083771,103.131126 
	C276.879089,99.785507 276.674377,96.439888 276.724548,92.302406 
	C276.812378,87.868256 276.900208,83.434113 277.110016,78.130913 
	C277.069519,76.086220 277.029053,74.041519 277.109558,71.128624 
	C277.077179,69.086235 277.044800,67.043839 277.412659,64.408287 
	C277.020050,61.897717 276.627472,59.387142 276.180664,56.102531 
	C276.126251,55.069168 276.071838,54.035801 276.416779,52.562702 
	C273.609589,49.009052 270.802368,45.455402 267.908203,41.287254 
	C266.956635,41.146515 266.005035,41.005775 264.110291,40.893421 
	C247.075516,40.914608 230.040741,40.935799 212.073227,40.841038 
	C199.717575,40.884037 187.361923,40.927036 174.215424,40.837242 
	C173.153366,40.735863 172.091293,40.634483 170.835602,39.949242 
	C170.264954,39.790665 169.499222,39.311653 169.153351,39.522247 
	C164.924911,42.096889 168.067490,44.810711 169.510147,46.845051 
	C174.677994,54.132416 180.245682,61.134933 185.593018,68.296783 
	C189.203384,73.132294 192.629272,77.499367 199.852127,77.269753 
	C214.730545,76.796783 229.632675,77.070343 244.693802,77.758461 
	C244.765045,78.493225 244.836288,79.227997 244.788727,80.896950 
	C244.832001,86.267509 244.875290,91.638062 244.811005,97.939056 
	C244.858276,108.291138 244.905533,118.643219 244.832977,129.925171 
	C244.874557,135.284561 244.916138,140.643967 244.826096,146.927307 
M140.369522,175.972046 
	C140.316315,172.327347 140.263123,168.682663 140.570679,164.167328 
	C140.498276,157.459717 140.425888,150.752090 140.662567,143.155304 
	C140.603455,139.157120 140.544357,135.158951 140.769440,130.630051 
	C140.632339,130.079895 140.495224,129.529724 140.290955,128.233124 
	C140.166397,127.494682 140.041840,126.756233 139.923553,125.339081 
	C139.002625,123.855484 138.081696,122.371880 137.053680,120.896591 
	C137.053680,120.896591 137.145355,120.840630 136.974777,120.181221 
	C132.792725,113.533592 120.096848,111.667915 114.297035,117.767677 
	C113.880180,118.184830 113.463333,118.601982 112.790764,119.374855 
	C112.790764,119.374855 112.762032,119.812012 112.706985,119.779678 
	C112.706985,119.779678 112.646126,119.760399 112.023796,120.035316 
	C110.699989,123.129105 108.569008,126.137833 108.231995,129.335617 
	C107.653198,134.827637 108.194000,140.437637 108.097572,146.894821 
	C108.190208,149.635910 108.282837,152.376999 108.237015,156.029266 
	C108.253647,163.350525 108.270287,170.671783 108.126091,178.495056 
	C108.172264,178.664581 108.218445,178.834106 108.139023,179.866318 
	C108.118538,181.034714 108.098053,182.203110 107.132309,183.390549 
	C92.752342,183.413528 78.368851,183.266190 63.994602,183.564575 
	C59.750340,183.652664 54.647774,183.205307 52.330254,189.215775 
	C51.870056,190.090912 51.409855,190.966064 50.271675,191.994629 
	C48.836334,193.974152 47.400993,195.953674 45.310299,198.167236 
	C42.518230,202.058792 39.726162,205.950363 36.340927,210.144821 
	C34.894894,212.173004 33.448864,214.201172 31.970434,216.609970 
	C31.970434,216.609970 32.004990,216.990402 32.006649,217.787369 
	C32.573376,218.799301 33.077991,220.641022 33.716885,220.688858 
	C37.944622,221.005325 42.201153,220.982269 46.448380,220.985687 
	C67.419655,221.002594 88.391388,221.068542 109.361977,220.946915 
	C115.560379,220.910980 121.797256,220.654755 127.940758,219.890518 
	C134.356155,219.092468 140.247162,211.658600 139.791351,205.752380 
	C139.763519,205.171661 139.735687,204.590942 139.916855,203.280457 
	C139.988922,202.525269 140.060974,201.770081 140.702332,200.410889 
	C140.588577,192.557297 140.474823,184.703690 140.369522,175.972046 
z"/>
<path fill="#A0E378" opacity="1.000000" stroke="none" 
	d="
M32.056427,51.998436 
	C32.072235,51.608685 32.088043,51.218929 32.335392,50.481136 
	C32.566936,50.133095 33.001976,50.000641 33.241302,49.848175 
	C33.617958,49.349613 33.755283,49.003517 33.917046,48.387054 
	C33.996857,47.759541 34.052231,47.402401 34.107609,47.045261 
	C34.107609,47.045261 34.534081,46.987381 34.808243,47.116943 
	C35.168602,47.298573 35.254795,47.350643 35.340992,47.402718 
	C35.215313,47.256565 35.089634,47.110416 34.963955,46.964268 
	C35.414577,46.366463 35.865196,45.768661 36.932823,45.039940 
	C38.000099,44.435532 38.450363,43.962036 38.900631,43.488548 
	C39.436855,43.003437 39.973076,42.518326 41.022079,41.917023 
	C42.012188,41.504322 42.489510,41.207813 42.966831,40.911301 
	C59.338863,40.881062 75.710899,40.850819 92.302780,41.169167 
	C90.848900,41.850483 89.175171,42.183208 87.312782,42.553440 
	C89.140312,44.632694 90.541222,46.589489 92.324310,48.093056 
	C93.143028,48.783421 95.268295,49.199581 95.842766,48.680180 
	C98.138748,46.604267 100.058479,44.112209 102.391174,41.809223 
	C103.032509,41.853310 103.400093,41.862305 104.249580,41.908302 
	C113.943024,41.963604 123.156898,41.881302 132.363907,42.094769 
	C133.983063,42.132309 135.573486,43.408447 137.163177,44.110447 
	C137.149170,44.108318 137.129944,44.087498 136.853882,44.222198 
	C136.399078,44.923721 136.220322,45.490547 136.024033,46.027363 
	C136.006485,45.997356 136.061203,46.040508 135.728104,46.068398 
	C134.957413,46.761280 134.519821,47.426273 134.048615,48.057770 
	C134.015015,48.024277 134.107559,48.045280 133.836517,48.192482 
	C133.391159,48.911251 133.216827,49.482815 133.025452,50.024864 
	C133.008438,49.995350 133.059387,50.041439 132.726410,50.070244 
	C131.964874,50.766861 131.536331,51.434677 131.056885,52.079781 
	C131.005981,52.057064 131.117294,52.063221 130.845551,52.201694 
	C130.388336,52.901253 130.202866,53.462337 130.008942,54.011345 
	C130.000473,53.999271 130.024551,54.017258 129.675720,54.043938 
	C127.956017,55.768433 126.585129,57.466255 125.212761,59.118183 
	C125.211281,59.072289 125.188362,59.157486 124.869301,59.199898 
	C117.475456,57.807034 126.776169,55.206089 124.578369,53.751808 
	C120.723282,54.688015 117.234451,56.131866 113.703400,56.243790 
	C109.153641,56.388004 104.570076,55.465408 99.641006,54.958237 
	C96.407761,52.368336 93.469543,50.483326 89.580704,54.010605 
	C86.560730,54.345741 83.954659,54.985901 81.359627,54.943863 
	C67.837563,54.724808 54.317020,54.374352 40.799183,53.963329 
	C38.192661,53.884083 35.600540,53.330975 32.899261,52.782555 
	C32.613983,52.295475 32.367210,52.105404 32.056427,51.998436 
z"/>
<path fill="#A1E378" opacity="1.000000" stroke="none" 
	d="
M267.995178,41.901756 
	C270.802368,45.455402 273.609589,49.009052 275.831207,52.946777 
	C273.294434,53.553852 271.343628,53.966881 269.391968,53.970806 
	C246.929260,54.015987 224.466446,53.999104 202.153778,53.693100 
	C203.578110,52.360420 205.076111,51.514332 206.082001,50.270336 
	C208.512299,47.264778 210.712814,44.073433 213.005966,40.956985 
	C230.040741,40.935799 247.075516,40.914608 264.789795,41.131874 
	C266.311279,41.547470 267.153229,41.724609 267.995178,41.901756 
z"/>
<path fill="#97DA81" opacity="1.000000" stroke="none" 
	d="
M277.012390,65.001450 
	C277.044800,67.043839 277.077179,69.086235 276.634888,71.617699 
	C270.127258,72.404648 264.096680,72.835526 258.060272,72.946869 
	C254.818665,73.006668 252.204254,73.641846 250.620819,77.001068 
	C248.373550,75.686501 246.504852,74.374229 244.190338,73.069572 
	C228.534454,73.066231 213.324341,73.069550 198.114365,73.028732 
	C195.867050,73.022705 193.213913,73.504311 193.282166,69.960426 
	C193.633133,68.145042 193.633133,66.389061 193.633133,64.149170 
	C195.627075,64.149170 197.730362,64.115479 199.832306,64.154671 
	C212.746094,64.395477 225.659958,64.634293 238.572784,64.919922 
	C241.199783,64.978035 243.822418,65.233109 246.447067,65.397385 
	C250.872864,65.128975 255.300720,65.140350 259.715729,64.907707 
	C264.460358,64.657700 269.192902,64.178596 273.930725,63.799458 
	C273.902557,63.333572 273.874390,62.867691 273.846191,62.401810 
	C274.901611,63.268356 275.957001,64.134903 277.012390,65.001450 
z"/>
<path fill="#9CE07C" opacity="1.000000" stroke="none" 
	d="
M202.003647,53.998734 
	C224.466446,53.999104 246.929260,54.015987 269.391968,53.970806 
	C271.343628,53.966881 273.294434,53.553852 275.631531,53.166649 
	C276.071838,54.035801 276.126251,55.069168 275.896790,56.710938 
	C274.400970,60.908455 271.500610,61.031593 268.373871,61.023506 
	C249.796890,60.975475 231.219742,60.999775 212.642639,60.999775 
	C207.955795,60.999775 203.268967,60.999775 198.301422,60.999775 
	C198.612686,59.219353 198.806290,58.111965 199.320465,56.961121 
	C200.428574,55.944687 201.216110,54.971710 202.003647,53.998734 
z"/>
<path fill="#3F89E3" opacity="1.000000" stroke="none" 
	d="
M36.934097,209.841919 
	C39.726162,205.950363 42.518230,202.058792 45.656261,198.452667 
	C46.532013,201.049652 47.061802,203.361237 47.370934,204.710052 
	C51.358944,204.079453 54.761387,203.176453 58.187851,203.073563 
	C65.966530,202.840012 73.762070,203.166016 81.540588,202.929688 
	C85.399948,202.812439 87.529488,204.161423 87.735992,208.186493 
	C85.980049,210.251266 84.489326,212.129181 82.530106,214.007111 
	C75.047577,214.000916 68.033539,213.994675 60.975376,213.640778 
	C59.397472,211.784348 57.863697,210.275574 55.866871,208.311295 
	C54.591129,210.816711 53.784710,212.400421 52.512169,213.988708 
	C47.014713,213.993271 41.983372,213.993271 36.934097,213.993271 
	C36.934097,212.384201 36.934097,211.113068 36.934097,209.841919 
z"/>
<path fill="#448DDF" opacity="1.000000" stroke="none" 
	d="
M88.001221,207.999619 
	C87.529488,204.161423 85.399948,202.812439 81.540588,202.929688 
	C73.762070,203.166016 65.966530,202.840012 58.187851,203.073563 
	C54.761387,203.176453 51.358944,204.079453 47.370934,204.710052 
	C47.061802,203.361237 46.532013,201.049652 45.983940,198.335632 
	C47.400993,195.953674 48.836334,193.974152 50.669388,192.274567 
	C52.366631,192.547653 53.703053,192.727814 54.955200,192.480789 
	C56.180679,192.239044 57.754745,190.805649 58.430031,191.193558 
	C64.818558,194.863464 71.415756,190.732941 77.850174,191.906113 
	C79.459114,192.199463 81.279938,191.330688 83.305145,191.145172 
	C87.076424,194.537354 90.545921,197.780380 93.977097,201.363617 
	C91.959595,203.802429 89.980408,205.901031 88.001221,207.999619 
z"/>
<path fill="#99E06E" opacity="1.000000" stroke="none" 
	d="
M202.153778,53.693100 
	C201.216110,54.971710 200.428574,55.944687 198.910080,56.959900 
	C193.469086,55.228443 189.543854,57.455551 184.825699,60.835136 
	C185.450653,53.788391 182.303238,51.629665 176.947571,52.061184 
	C176.964417,52.053089 176.947128,52.061504 176.960815,51.696732 
	C176.276978,50.585697 175.579453,49.839436 174.895599,49.055679 
	C174.909256,49.018181 174.937729,49.092773 174.849915,48.850128 
	C174.484604,48.416843 174.207123,48.226196 173.965927,48.025085 
	C174.002228,48.014618 173.946136,48.065304 173.943085,47.753311 
	C173.572235,46.995949 173.204437,46.550571 172.875412,46.132629 
	C172.914169,46.160065 172.819351,46.165459 172.852295,45.826855 
	C172.494675,44.493404 172.104080,43.498558 171.744263,42.582088 
	C172.854797,42.033272 173.930542,41.501652 175.006271,40.970036 
	C187.361923,40.927036 199.717575,40.884037 212.539597,40.899014 
	C210.712814,44.073433 208.512299,47.264778 206.082001,50.270336 
	C205.076111,51.514332 203.578110,52.360420 202.153778,53.693100 
z"/>
<path fill="#9BDF7D" opacity="1.000000" stroke="none" 
	d="
M33.001778,52.996468 
	C35.600540,53.330975 38.192661,53.884083 40.799183,53.963329 
	C54.317020,54.374352 67.837563,54.724808 81.359627,54.943863 
	C83.954659,54.985901 86.560730,54.345741 89.444519,54.321152 
	C87.152084,57.081642 84.576843,59.541279 81.533646,62.000584 
	C74.711075,62.000641 68.356461,62.001030 61.690060,61.846237 
	C58.520477,58.446239 55.992455,58.347343 52.690956,61.575527 
	C50.136063,64.073692 47.317459,67.012299 42.791428,65.857796 
	C40.283993,65.218185 37.601131,65.266273 34.621819,65.004227 
	C33.251854,64.992294 32.257416,64.980515 31.262981,64.968735 
	C31.247625,61.845921 31.232269,58.723106 31.726727,55.153809 
	C32.491619,54.137043 32.746700,53.566757 33.001778,52.996468 
z"/>
<path fill="#9BDF7D" opacity="1.000000" stroke="none" 
	d="
M176.930725,52.069275 
	C182.303238,51.629665 185.450653,53.788391 184.825699,60.835136 
	C189.543854,57.455551 193.469086,55.228443 198.589508,57.003357 
	C198.806290,58.111965 198.612686,59.219353 198.301422,60.999775 
	C203.268967,60.999775 207.955795,60.999775 212.642639,60.999775 
	C231.219742,60.999775 249.796890,60.975475 268.373871,61.023506 
	C271.500610,61.031593 274.400970,60.908455 275.923889,57.097954 
	C276.627472,59.387142 277.020050,61.897717 277.212524,64.704865 
	C275.957001,64.134903 274.901611,63.268356 273.846191,62.401810 
	C273.874390,62.867691 273.902557,63.333572 273.930725,63.799458 
	C269.192902,64.178596 264.460358,64.657700 259.715729,64.907707 
	C255.300720,65.140350 250.872864,65.128975 246.447067,65.397385 
	C243.822418,65.233109 241.199783,64.978035 238.572784,64.919922 
	C225.659958,64.634293 212.746094,64.395477 199.832306,64.154671 
	C197.730362,64.115479 195.627075,64.149170 193.633133,64.149170 
	C193.633133,66.389061 193.633133,68.145042 192.979858,69.820068 
	C187.194641,63.849174 182.062683,57.959225 176.930725,52.069275 
z"/>
<path fill="#DCF0EC" opacity="1.000000" stroke="none" 
	d="
M176.947571,52.061180 
	C182.062683,57.959225 187.194641,63.849174 192.628906,69.879486 
	C193.213913,73.504311 195.867050,73.022705 198.114365,73.028732 
	C213.324341,73.069550 228.534454,73.066231 244.266632,73.467667 
	C244.700836,74.917664 244.612946,75.977196 244.525055,77.036728 
	C229.632675,77.070343 214.730545,76.796783 199.852127,77.269753 
	C192.629272,77.499367 189.203384,73.132294 185.593018,68.296783 
	C180.245682,61.134933 174.677994,54.132416 169.510147,46.845051 
	C168.067490,44.810711 164.924911,42.096889 169.153351,39.522247 
	C169.499222,39.311653 170.264954,39.790665 170.611893,40.392097 
	C168.116272,44.017586 171.130905,44.789097 172.819351,46.165459 
	C172.819351,46.165459 172.914169,46.160065 172.887878,46.433678 
	C173.223099,47.159962 173.584625,47.612633 173.946136,48.065304 
	C173.946136,48.065304 174.002228,48.014618 174.050446,48.270844 
	C174.378342,48.715633 174.658035,48.904205 174.937729,49.092773 
	C174.937729,49.092773 174.909256,49.018181 174.940552,49.367779 
	C175.630264,50.498753 176.288696,51.280128 176.947128,52.061508 
	C176.947128,52.061504 176.964417,52.053089 176.947571,52.061180 
z"/>
<path fill="#E3F5E8" opacity="1.000000" stroke="none" 
	d="
M139.045181,43.215691 
	C139.625366,48.880028 135.172943,51.973999 132.411774,55.849911 
	C128.393280,61.490772 124.449120,67.302711 119.622597,72.204018 
	C116.878082,74.991043 112.503281,77.560677 108.753418,77.724258 
	C94.179298,78.360039 79.561432,77.993057 64.434570,77.594284 
	C63.996902,75.818520 64.084518,74.447701 64.625702,73.088394 
	C79.702705,73.035027 94.326149,72.970146 109.335159,72.959427 
	C111.161339,72.725227 112.601967,72.436859 114.383057,72.082138 
	C116.183716,70.710060 117.643906,69.404343 119.100647,68.070251 
	C119.097191,68.041885 119.050751,68.075218 119.302353,67.997910 
	C119.729240,67.625816 119.904526,67.331039 120.040695,67.026672 
	C120.001579,67.017082 120.059814,67.072754 120.318192,66.908699 
	C120.753853,66.180672 120.931137,65.616699 121.080620,65.025551 
	C121.052818,64.998375 121.052628,65.076126 121.324081,65.011856 
	C121.815613,64.651642 122.035683,64.355690 122.447304,63.958683 
	C122.866829,63.656834 122.998070,63.405518 123.288376,62.922371 
	C123.843147,62.188404 124.142136,61.635761 124.663734,60.908634 
	C124.987015,60.208595 125.087685,59.683041 125.188354,59.157486 
	C125.188362,59.157486 125.211281,59.072289 125.541679,59.106766 
	C127.256241,57.433247 128.640396,55.725254 130.024567,54.017262 
	C130.024551,54.017258 130.000473,53.999271 130.262512,53.852711 
	C130.722153,53.158508 130.919724,52.610867 131.117294,52.063221 
	C131.117294,52.063221 131.005981,52.057064 131.338226,51.984795 
	C132.133438,51.288826 132.596420,50.665131 133.059387,50.041439 
	C133.059387,50.041439 133.008438,49.995350 133.275116,49.855824 
	C133.730392,49.159290 133.918976,48.602283 134.107559,48.045280 
	C134.107559,48.045280 134.015015,48.024277 134.322266,47.946632 
	C135.106735,47.259491 135.583969,46.649998 136.061203,46.040504 
	C136.061203,46.040508 136.006485,45.997356 136.281998,45.871414 
	C136.748322,45.192818 136.939133,44.640156 137.129944,44.087494 
	C137.129944,44.087498 137.149170,44.108318 137.412994,44.031036 
	C138.132935,43.707737 138.589066,43.461712 139.045181,43.215691 
z"/>
<path fill="#E1F0FD" opacity="1.000000" stroke="none" 
	d="
M274.969269,207.993103 
	C275.416260,209.021729 276.527710,210.619995 276.208801,210.992050 
	C272.471588,215.351547 268.966156,219.984085 262.244934,220.042725 
	C237.341812,220.260010 212.440491,220.843033 187.537994,220.873032 
	C180.134354,220.881943 172.847946,219.277603 169.609406,211.071152 
	C169.196518,210.024933 169.195786,208.816055 169.273010,207.461365 
	C170.175659,207.997070 170.809418,208.753983 171.563354,209.759323 
	C172.088547,210.374405 172.493576,210.741043 172.992340,211.338882 
	C173.363632,211.739609 173.641190,211.909134 174.093079,212.369934 
	C176.699570,214.009979 179.131729,215.358765 181.901169,217.025375 
	C183.356491,217.561722 184.474274,217.969269 185.592636,217.970947 
	C210.169174,218.007584 234.745819,218.013474 259.322296,217.957245 
	C260.548523,217.954437 261.773376,217.337769 263.012695,216.794098 
	C263.026520,216.581268 263.046478,216.155197 263.403717,216.067276 
	C265.903809,214.713226 268.046661,213.447113 270.439667,212.079849 
	C270.895142,211.691345 271.100494,211.403976 271.582733,210.986664 
	C272.896149,209.902161 273.932709,208.947632 274.969269,207.993103 
z"/>
<path fill="#E8F2FB" opacity="1.000000" stroke="none" 
	d="
M139.428329,206.219498 
	C140.247162,211.658600 134.356155,219.092468 127.940758,219.890518 
	C121.797256,220.654755 115.560379,220.910980 109.361977,220.946915 
	C88.391388,221.068542 67.419655,221.002594 46.448380,220.985687 
	C42.201153,220.982269 37.944622,221.005325 33.716885,220.688858 
	C33.077991,220.641022 32.573376,218.799301 32.343681,217.388397 
	C33.130840,217.007767 33.580967,217.026123 34.327660,217.331299 
	C35.269115,217.743073 35.913925,217.976898 36.558899,217.977341 
	C65.475510,217.997452 94.392159,218.009048 123.308685,217.957672 
	C124.539238,217.955490 125.768700,217.347168 127.018051,216.796509 
	C127.037430,216.571808 127.056435,216.121140 127.407684,216.023010 
	C133.194962,214.548889 136.967422,211.172668 139.428329,206.219498 
z"/>
<path fill="#58A0C7" opacity="1.000000" stroke="none" 
	d="
M276.967529,154.013565 
	C277.018585,155.400803 277.069641,156.788040 276.766296,158.871628 
	C276.271301,162.378571 276.130676,165.189148 275.746521,168.003647 
	C275.503021,168.007553 275.015991,168.014648 274.545532,168.009247 
	C265.052734,167.308136 255.799225,169.734009 247.001343,165.582672 
	C246.999542,163.776901 246.998245,162.387848 246.997528,160.623260 
	C246.999542,159.496475 247.000992,158.745178 247.378891,157.953003 
	C254.285873,157.608063 260.816132,157.091675 267.347046,157.083176 
	C271.004364,157.078415 274.358429,156.934738 276.967529,154.013565 
z"/>
<path fill="#6EB3AF" opacity="1.000000" stroke="none" 
	d="
M108.264801,145.998108 
	C108.194000,140.437637 107.653198,134.827637 108.231995,129.335617 
	C108.569008,126.137833 110.699989,123.129105 112.408035,120.289032 
	C111.614334,125.733551 113.809158,127.622887 119.257019,127.512802 
	C125.897522,127.378609 132.890213,124.143349 139.120407,129.379440 
	C139.078659,130.069229 139.067657,130.464233 139.041595,131.284058 
	C138.897980,133.387283 138.769394,135.065689 138.497208,138.618698 
	C134.196762,132.982880 130.570465,134.026093 126.938950,136.654434 
	C121.437202,136.306427 115.997726,136.306427 110.000000,136.306427 
	C110.000000,138.122284 110.000000,140.560532 109.999023,143.373123 
	C109.993813,144.495865 109.989578,145.244278 109.698318,145.993988 
	C109.029121,145.996246 108.646965,145.997177 108.264801,145.998108 
z"/>
<path fill="#88CD92" opacity="1.000000" stroke="none" 
	d="
M31.289663,91.020470 
	C31.227087,88.647644 31.164511,86.274811 31.542086,83.564087 
	C32.584473,84.675163 33.186710,86.124130 33.385883,86.603340 
	C43.309326,88.127174 52.649391,89.561424 61.992638,91.433365 
	C61.994202,93.911095 61.992573,95.951126 61.522861,97.993881 
	C51.935307,97.996613 42.815834,97.996613 34.209827,97.996613 
	C33.051785,95.230103 32.170723,93.125290 31.289663,91.020470 
z"/>
<path fill="#56A1BA" opacity="1.000000" stroke="none" 
	d="
M140.353485,144.044464 
	C140.425888,150.752090 140.498276,157.459717 140.191162,164.610107 
	C139.543533,165.038452 139.275223,165.031342 139.003723,164.618500 
	C139.000748,162.742081 139.000748,161.278732 139.000748,161.174637 
	C136.492126,158.961868 134.950104,157.601700 134.045792,156.804031 
	C131.056503,157.245010 128.527557,157.618073 125.852707,157.693680 
	C122.806503,154.597458 119.906212,151.798706 117.039124,148.656952 
	C118.380455,147.206879 119.688583,146.099777 121.450333,144.994659 
	C128.053787,144.679260 134.203644,144.361862 140.353485,144.044464 
z"/>
<path fill="#6EB3AF" opacity="1.000000" stroke="none" 
	d="
M198.217102,124.872345 
	C198.888672,128.617218 199.560242,132.362076 199.930145,136.650375 
	C199.416901,137.461960 199.205338,137.730103 198.639099,137.962646 
	C195.579361,136.426651 192.874298,134.926239 190.096680,133.385559 
	C188.435333,134.564774 186.718582,135.783295 184.547546,137.000870 
	C181.168808,136.871353 178.170731,137.104263 175.337570,136.527390 
	C171.335876,135.712570 169.782043,137.121201 169.693054,141.002045 
	C168.977448,141.017731 168.568832,141.030182 168.084290,140.599670 
	C167.895203,137.770462 167.782028,135.384201 167.668854,132.997955 
	C167.668854,132.997955 167.862793,132.982635 168.321381,132.915466 
	C171.921097,126.669945 172.416794,126.535812 179.857849,127.720001 
	C181.493820,127.980362 183.285965,127.259354 185.305328,127.138687 
	C187.076263,128.527481 188.548080,129.767822 190.111404,131.085312 
	C193.015366,128.859436 195.616241,126.865898 198.217102,124.872345 
z"/>
<path fill="#85C79B" opacity="1.000000" stroke="none" 
	d="
M31.194231,91.474808 
	C32.170723,93.125290 33.051785,95.230103 34.209827,97.996613 
	C42.815834,97.996613 51.935307,97.996613 61.527210,98.256622 
	C62.001957,98.691734 62.004276,98.866829 62.010017,99.476166 
	C62.009880,101.937935 62.006313,103.965462 61.552174,105.995361 
	C51.730835,106.333107 42.360073,106.668488 32.982594,106.673744 
	C32.423946,105.590584 31.872017,104.837547 31.320087,104.084511 
	C31.246323,100.032722 31.172560,95.980934 31.194231,91.474808 
z"/>
<path fill="#5FA4C0" opacity="1.000000" stroke="none" 
	d="
M277.045044,153.567703 
	C274.358429,156.934738 271.004364,157.078415 267.347046,157.083176 
	C260.816132,157.091675 254.285873,157.608063 247.378235,157.503708 
	C247.001175,154.396667 247.001190,151.698029 247.353485,148.964706 
	C253.433578,148.953552 259.161865,149.032211 264.889038,148.982834 
	C269.314148,148.944687 274.222351,150.212814 276.970398,145.010330 
	C277.021118,147.714172 277.071838,150.417999 277.045044,153.567703 
z"/>
<path fill="#77BCA5" opacity="1.000000" stroke="none" 
	d="
M276.994263,113.002090 
	C277.033508,114.722328 277.072754,116.442566 276.689331,118.653259 
	C275.844452,120.430573 275.422241,121.717422 274.531342,123.002823 
	C265.042206,122.997757 256.021698,122.994148 247.049805,122.655762 
	C250.399323,119.213913 253.700272,116.106834 257.403931,113.000626 
	C264.202545,113.001694 270.598389,113.001892 276.994263,113.002090 
z"/>
<path fill="#8ED38B" opacity="1.000000" stroke="none" 
	d="
M61.989449,90.995667 
	C52.649391,89.561424 43.309326,88.127174 33.385883,86.603340 
	C33.186710,86.124130 32.584473,84.675163 31.633266,83.128174 
	C31.233522,80.004227 31.182749,76.978294 31.547573,73.594505 
	C32.322407,74.534470 32.410847,76.022079 33.139149,77.061234 
	C33.599953,77.718712 35.015026,77.707390 36.441250,77.997101 
	C39.587337,77.664482 42.294270,77.330818 45.306725,77.149170 
	C51.088562,79.833488 53.893875,88.047318 61.994240,85.429962 
	C61.993855,87.570618 61.991653,89.283150 61.989449,90.995667 
z"/>
<path fill="#75BAA9" opacity="1.000000" stroke="none" 
	d="
M139.151138,129.084671 
	C132.890213,124.143349 125.897522,127.378609 119.257019,127.512802 
	C113.809158,127.622887 111.614334,125.733551 112.719193,120.151573 
	C112.646126,119.760399 112.706985,119.779678 112.930817,119.795479 
	C113.257332,119.738342 113.360016,119.665405 113.462700,119.592468 
	C113.323959,119.401360 113.185226,119.210251 113.046486,119.019142 
	C113.463333,118.601982 113.880180,118.184830 114.744537,117.917694 
	C115.807068,118.011421 116.499992,118.120728 117.025307,117.873657 
	C123.455994,114.849152 129.440933,114.976128 134.868546,120.104637 
	C135.391968,120.599220 136.375443,120.606918 137.145355,120.840630 
	C137.145355,120.840630 137.053680,120.896591 137.079071,121.261955 
	C138.042053,123.090813 138.979660,124.554306 139.917282,126.017792 
	C140.041840,126.756233 140.166397,127.494682 140.021683,128.627136 
	C139.551971,129.042328 139.351547,129.063507 139.151138,129.084671 
z"/>
<path fill="#64ABBA" opacity="1.000000" stroke="none" 
	d="
M277.042267,144.638214 
	C274.222351,150.212814 269.314148,148.944687 264.889038,148.982834 
	C259.161865,149.032211 253.433578,148.953552 247.352936,148.589584 
	C246.999069,147.498825 246.998016,146.748489 246.997742,145.597931 
	C247.000244,144.130371 247.001953,143.063049 247.384979,141.952637 
	C248.704147,141.628326 249.639465,141.112869 250.580292,141.102631 
	C258.720032,141.013992 266.860779,141.016266 275.168640,141.235504 
	C275.887726,141.654526 276.439423,141.829529 276.991089,142.004532 
	C277.032104,142.758377 277.073090,143.512238 277.042267,144.638214 
z"/>
<path fill="#92D688" opacity="1.000000" stroke="none" 
	d="
M250.999390,77.003357 
	C252.204254,73.641846 254.818665,73.006668 258.060272,72.946869 
	C264.096680,72.835526 270.127258,72.404648 276.574402,72.051804 
	C277.029053,74.041519 277.069519,76.086220 276.692261,78.629913 
	C275.265564,80.062309 274.335480,81.686424 273.234314,81.812141 
	C267.847900,82.427086 262.415894,82.642639 256.698608,82.852196 
	C254.597931,80.804451 252.798660,78.903908 250.999390,77.003357 
z"/>
<path fill="#80BFAF" opacity="1.000000" stroke="none" 
	d="
M198.189514,124.498734 
	C195.616241,126.865898 193.015366,128.859436 190.111404,131.085312 
	C188.548080,129.767822 187.076263,128.527481 185.252380,126.804672 
	C182.222198,123.021194 179.544067,119.720161 176.865952,116.419128 
	C185.596100,111.642410 196.105087,115.445114 198.189514,124.498734 
z"/>
<path fill="#448DDF" opacity="1.000000" stroke="none" 
	d="
M275.124146,207.642517 
	C273.932709,208.947632 272.896149,209.902161 271.257446,210.943054 
	C270.437378,211.014496 270.219482,210.999573 269.732544,210.804520 
	C267.644745,209.080994 265.825989,207.537628 263.860229,205.695999 
	C260.142792,201.598694 256.572327,197.799652 253.442474,194.000153 
	C259.703461,195.381348 265.589539,196.541931 271.314728,198.243759 
	C273.931580,199.021622 275.103394,198.951050 275.285675,196.261749 
	C275.754456,198.122971 275.938812,199.712662 276.123138,201.302368 
	C275.841766,203.298889 275.560364,205.295425 275.124146,207.642517 
z"/>
<path fill="#8CD08D" opacity="1.000000" stroke="none" 
	d="
M257.000000,82.999390 
	C262.415894,82.642639 267.847900,82.427086 273.234314,81.812141 
	C274.335480,81.686424 275.265564,80.062309 276.631287,79.064438 
	C276.900208,83.434113 276.812378,87.868256 276.124512,92.664078 
	C272.684174,93.350914 269.843933,93.676071 266.706787,93.857269 
	C264.271698,91.808121 262.133453,89.902924 259.851105,87.700798 
	C258.804657,85.935707 257.902344,84.467545 257.000000,82.999390 
z"/>
<path fill="#81CA8B" opacity="1.000000" stroke="none" 
	d="
M259.995239,87.997726 
	C262.133453,89.902924 264.271698,91.808121 266.832520,94.151688 
	C267.505829,95.393234 267.756592,96.196419 267.537994,96.999847 
	C260.044586,97.004524 253.020493,97.008965 245.726959,97.010132 
	C245.277863,97.007454 245.098206,97.008041 244.918579,97.008621 
	C244.875290,91.638062 244.832001,86.267509 245.142883,80.661850 
	C247.652649,82.877029 245.344406,88.097832 250.064468,88.687187 
	C253.295654,89.090637 256.679596,88.270729 259.995239,87.997726 
z"/>
<path fill="#4890D9" opacity="1.000000" stroke="none" 
	d="
M83.003372,190.996033 
	C81.279938,191.330688 79.459114,192.199463 77.850174,191.906113 
	C71.415756,190.732941 64.818558,194.863464 58.430031,191.193558 
	C57.754745,190.805649 56.180679,192.239044 54.955200,192.480789 
	C53.703053,192.727814 52.366631,192.547653 51.008381,192.197845 
	C51.409855,190.966064 51.870056,190.090912 52.978371,189.060394 
	C56.836426,186.185730 60.582577,185.762054 64.645172,185.937805 
	C70.086220,186.173203 75.544487,186.010574 81.003639,186.373505 
	C81.675735,188.150787 82.339554,189.573410 83.003372,190.996033 
z"/>
<path fill="#73BD9A" opacity="1.000000" stroke="none" 
	d="
M244.864777,97.473839 
	C245.098206,97.008041 245.277863,97.007454 245.727539,97.446793 
	C246.085846,99.698807 246.049149,101.527710 246.290405,103.319183 
	C246.697189,106.339859 248.493668,107.147781 251.511993,107.025902 
	C254.656021,106.898964 257.835052,107.639023 260.859619,108.290543 
	C259.480682,110.053986 258.240936,111.526871 257.001221,112.999756 
	C253.700272,116.106834 250.399323,119.213913 247.048096,123.084808 
	C246.997726,125.561890 246.997650,127.275146 246.656845,128.989395 
	C245.861679,128.992035 245.407242,128.993668 244.952789,128.995300 
	C244.905533,118.643219 244.858276,108.291138 244.864777,97.473839 
z"/>
<path fill="#5EA9B2" opacity="1.000000" stroke="none" 
	d="
M140.508026,143.599884 
	C134.203644,144.361862 128.053787,144.679260 121.487122,144.649414 
	C123.047279,141.868927 125.024254,139.435684 127.001221,137.002441 
	C130.570465,134.026093 134.196762,132.982880 138.497208,138.618698 
	C138.769394,135.065689 138.897980,133.387283 139.281311,131.329163 
	C139.849365,131.033752 140.165756,131.104202 140.485245,131.160767 
	C140.544357,135.158951 140.603455,139.157120 140.508026,143.599884 
z"/>
<path fill="#7DC39E" opacity="1.000000" stroke="none" 
	d="
M257.403931,113.000626 
	C258.240936,111.526871 259.480682,110.053986 261.156311,108.146561 
	C263.727356,105.809532 265.862518,103.907028 268.242676,102.284302 
	C271.308624,103.044243 274.129608,103.524422 276.950562,104.004593 
	C277.007141,106.705887 277.063721,109.407181 277.057312,112.555283 
	C270.598389,113.001892 264.202545,113.001694 257.403931,113.000626 
z"/>
<path fill="#75BAA9" opacity="1.000000" stroke="none" 
	d="
M176.515289,116.528839 
	C179.544067,119.720161 182.222198,123.021194 184.953262,126.656250 
	C183.285965,127.259354 181.493820,127.980362 179.857849,127.720001 
	C172.416794,126.535812 171.921097,126.669945 168.416809,132.934402 
	C167.977066,131.935349 167.900528,130.850204 167.888397,129.002121 
	C168.014664,127.489601 168.076508,126.740005 168.138336,125.990410 
	C170.813766,122.873116 173.489182,119.755829 176.515289,116.528839 
z"/>
<path fill="#E1F0FD" opacity="1.000000" stroke="none" 
	d="
M60.825214,135.967163 
	C63.269039,140.424820 58.967800,142.473404 56.899975,144.113876 
	C49.254322,150.179504 35.680622,145.718246 32.418739,136.545166 
	C32.293331,136.192505 32.659054,135.665207 33.332138,135.222961 
	C34.549229,135.911804 35.230110,136.596970 35.982857,137.468811 
	C36.212738,137.891815 36.430870,138.039215 36.911381,138.362854 
	C37.721447,138.798294 38.329254,138.968597 38.905426,139.114899 
	C38.873783,139.090912 38.847157,139.165726 38.919888,139.516724 
	C45.582752,144.019150 52.419781,143.382370 58.110458,138.117371 
	C58.117764,138.146973 58.171577,138.175613 58.428391,138.035172 
	C59.398540,137.252213 60.111877,136.609680 60.825214,135.967163 
z"/>
<path fill="#8AD380" opacity="1.000000" stroke="none" 
	d="
M259.851105,87.700798 
	C256.679596,88.270729 253.295654,89.090637 250.064468,88.687187 
	C245.344406,88.097832 247.652649,82.877029 245.202271,80.194756 
	C244.836288,79.227997 244.765045,78.493225 244.609436,77.397598 
	C244.612946,75.977196 244.700836,74.917664 244.712448,73.460037 
	C246.504852,74.374229 248.373550,75.686501 250.620819,77.001068 
	C252.798660,78.903908 254.597931,80.804451 256.698608,82.852188 
	C257.902344,84.467545 258.804657,85.935707 259.851105,87.700798 
z"/>
<path fill="#4087CA" opacity="1.000000" stroke="none" 
	d="
M80.995361,186.018829 
	C75.544487,186.010574 70.086220,186.173203 64.645172,185.937805 
	C60.582577,185.762054 56.836426,186.185730 53.246712,188.924423 
	C54.647774,183.205307 59.750340,183.652664 63.994602,183.564575 
	C78.368851,183.266190 92.752342,183.413528 107.576912,183.526352 
	C108.021515,183.662155 107.950356,183.951248 107.487396,183.980927 
	C99.358292,184.017166 91.691711,183.986298 84.026527,184.075668 
	C83.019676,184.087387 82.020012,184.714523 81.012619,185.297211 
	C81.008232,185.537781 80.995361,186.018845 80.995361,186.018829 
z"/>
<path fill="#3E7DCD" opacity="1.000000" stroke="none" 
	d="
M61.019501,213.988434 
	C68.033539,213.994675 75.047577,214.000916 82.966194,214.010284 
	C85.904526,214.018661 87.938286,214.023911 89.675766,214.317047 
	C86.607201,214.736572 83.834404,214.858292 81.062729,215.001968 
	C75.719139,215.278946 70.376183,215.568375 64.564896,215.905106 
	C53.398823,216.048157 42.700825,216.138763 32.002831,216.229370 
	C33.448864,214.201172 34.894894,212.173004 36.637512,209.993378 
	C36.934097,211.113068 36.934097,212.384201 36.934097,213.993271 
	C41.983372,213.993271 47.014713,213.993271 52.959213,213.996216 
	C56.254745,213.995590 58.637123,213.992004 61.019501,213.988434 
z"/>
<path fill="#B3DAFF" opacity="1.000000" stroke="none" 
	d="
M31.986633,216.419678 
	C42.700825,216.138763 53.398823,216.048157 65.026527,215.967728 
	C85.954391,215.922012 105.952538,215.866119 126.230789,215.874924 
	C126.692749,216.000122 126.874596,216.060638 127.056435,216.121140 
	C127.056435,216.121140 127.037430,216.571808 126.549698,216.788956 
	C95.385010,217.018890 64.708054,217.031693 34.031094,217.044479 
	C33.580967,217.026123 33.130840,217.007767 32.342850,216.989899 
	C32.004990,216.990402 31.970434,216.609970 31.986633,216.419678 
z"/>
<path fill="#E1F0FD" opacity="1.000000" stroke="none" 
	d="
M167.453278,133.343536 
	C167.782028,135.384201 167.895203,137.770462 168.024261,141.021301 
	C168.076965,143.591904 168.113754,145.297913 168.092178,147.248672 
	C168.055939,147.659714 168.078094,147.826004 168.039490,148.386108 
	C168.353104,150.521637 168.727478,152.263367 169.038605,154.418167 
	C169.026489,156.219788 169.077606,157.608353 169.061584,159.459778 
	C168.935471,164.917297 168.876480,169.911926 168.497269,175.193649 
	C168.085007,184.659744 167.992966,193.838730 167.900909,203.017731 
	C167.597946,202.276962 167.029404,201.535782 167.030533,200.795486 
	C167.065079,178.426636 167.155792,156.057892 167.453278,133.343536 
z"/>
<path fill="#B3DAFF" opacity="1.000000" stroke="none" 
	d="
M200.402710,137.944672 
	C200.607819,144.226379 200.916565,150.506821 200.992661,156.790085 
	C201.095047,165.245773 201.018051,173.703613 201.018051,182.962112 
	C203.538757,182.962112 205.624924,182.991211 207.710068,182.957336 
	C219.812119,182.760742 231.913940,182.549347 244.445953,182.433136 
	C244.868286,182.972351 244.860504,183.421432 244.881622,183.912735 
	C244.910507,183.954971 245.001648,183.908417 244.531525,183.914291 
	C229.708786,183.950165 215.356186,183.980164 200.807404,183.858917 
	C200.359543,183.491745 200.133560,183.251587 199.958588,182.520081 
	C199.961426,172.065720 199.938950,162.078506 199.978943,151.623810 
	C200.161850,146.752441 200.282272,142.348557 200.402710,137.944672 
z"/>
<path fill="#9FDB91" opacity="1.000000" stroke="none" 
	d="
M36.002098,77.996033 
	C35.015026,77.707390 33.599953,77.718712 33.139149,77.061234 
	C32.410847,76.022079 32.322407,74.534470 31.624575,73.150368 
	C31.213478,70.659798 31.140976,68.255524 31.165728,65.409988 
	C32.257416,64.980515 33.251854,64.992294 34.768330,65.302979 
	C37.227913,67.731422 39.165462,69.860954 41.105698,71.993446 
	C39.165371,74.275551 37.583736,76.135796 36.002098,77.996033 
z"/>
<path fill="#85C79B" opacity="1.000000" stroke="none" 
	d="
M277.017151,103.567856 
	C274.129608,103.524422 271.308624,103.044243 268.394531,101.977463 
	C269.060211,99.869720 271.926147,98.207458 268.007324,96.999603 
	C267.756592,96.196419 267.505829,95.393234 267.129395,94.295639 
	C269.843933,93.676071 272.684174,93.350914 275.997070,93.060013 
	C276.674377,96.439888 276.879089,99.785507 277.017151,103.567856 
z"/>
<path fill="#99E06E" opacity="1.000000" stroke="none" 
	d="
M102.117424,41.774128 
	C100.058479,44.112209 98.138748,46.604267 95.842766,48.680180 
	C95.268295,49.199581 93.143028,48.783421 92.324310,48.093056 
	C90.541222,46.589489 89.140312,44.632694 87.312782,42.553440 
	C89.175171,42.183208 90.848900,41.850483 92.768951,41.234070 
	C95.751991,40.882172 98.488708,40.813961 101.652138,40.980263 
	C102.091705,41.401230 102.104561,41.587677 102.117424,41.774128 
z"/>
<path fill="#4D88D1" opacity="1.000000" stroke="none" 
	d="
M168.004425,203.266968 
	C167.992966,193.838730 168.085007,184.659744 168.747269,175.316864 
	C169.547028,175.437958 169.776566,175.722946 170.003754,176.451309 
	C170.004272,179.263321 170.007126,181.631973 170.006943,184.465210 
	C170.007828,189.290970 170.011749,193.652145 170.011047,198.440765 
	C170.685089,202.235397 171.363739,205.602539 171.888489,209.100494 
	C171.734619,209.231277 171.443176,209.510895 171.443176,209.510895 
	C170.809418,208.753983 170.175659,207.997070 169.298950,207.064072 
	C169.056015,206.887970 169.003036,206.414505 168.906738,205.929520 
	C168.600525,205.157761 168.390610,204.870987 168.180710,204.584213 
	C168.156448,204.228210 168.132187,203.872223 168.004425,203.266968 
z"/>
<path fill="#80BFAF" opacity="1.000000" stroke="none" 
	d="
M62.002747,105.992981 
	C62.006313,103.965462 62.009880,101.937935 62.272305,99.463058 
	C62.879631,99.007118 63.228100,98.998528 63.576569,98.989929 
	C63.674431,108.762108 63.825054,118.534355 63.811508,128.306381 
	C63.809547,129.721939 63.020481,131.136398 62.288044,132.563080 
	C61.972507,132.398819 61.964573,132.222870 61.976959,131.664185 
	C61.998413,130.517715 61.999550,129.753967 62.006683,128.546631 
	C62.009148,125.734650 62.005611,123.366257 62.005863,120.553879 
	C62.007034,117.739220 62.004417,115.368546 62.005356,112.560287 
	C62.006851,110.079468 62.004799,108.036224 62.002747,105.992981 
z"/>
<path fill="#3E7DCD" opacity="1.000000" stroke="none" 
	d="
M127.407684,216.023010 
	C126.874596,216.060638 126.692749,216.000122 125.911430,215.625031 
	C123.362732,215.208588 121.411667,215.133316 119.464630,214.999496 
	C114.983360,214.691513 110.504059,214.355057 106.490067,214.022171 
	C111.087585,214.011093 115.245598,213.705963 119.344887,214.067245 
	C128.105026,214.839340 134.863815,212.095978 139.153473,203.996292 
	C139.338181,204.003769 139.707855,204.010223 139.707855,204.010223 
	C139.735687,204.590942 139.763519,205.171661 139.609833,205.985931 
	C136.967422,211.172668 133.194962,214.548889 127.407684,216.023010 
z"/>
<path fill="#3F80B9" opacity="1.000000" stroke="none" 
	d="
M107.950356,183.951248 
	C107.950356,183.951248 108.021515,183.662155 108.049545,183.516830 
	C108.098053,182.203110 108.118538,181.034714 108.342697,179.341812 
	C108.590500,178.713791 108.699364,178.577194 108.666565,178.512970 
	C108.570175,178.324265 108.417534,178.164276 108.286919,177.993042 
	C108.270287,170.671783 108.253647,163.350525 108.574738,155.563843 
	C109.270172,155.070663 109.627884,155.042923 109.976700,155.018082 
	C109.967804,155.020981 109.968475,155.043091 109.968117,155.438538 
	C109.974617,156.893509 109.981476,157.953033 109.983826,159.462021 
	C109.987061,162.610306 109.994820,165.309113 109.997993,168.465103 
	C110.002342,172.282227 110.011269,175.642181 110.012260,179.390350 
	C109.651649,181.179214 109.298973,182.579849 108.714722,183.988464 
	C108.483154,183.996445 108.021126,184.032379 108.004181,184.011444 
	C107.987244,183.990509 107.950356,183.951248 107.950356,183.951248 
z"/>
<path fill="#6EB3AF" opacity="1.000000" stroke="none" 
	d="
M31.226263,104.537140 
	C31.872017,104.837547 32.423946,105.590584 32.980602,107.102440 
	C32.989506,109.577583 32.993687,111.293915 32.995438,113.453369 
	C32.995998,116.266258 32.998993,118.636032 33.000626,121.455605 
	C33.004066,124.607529 33.008869,127.309647 32.995800,130.428696 
	C32.886620,131.396408 32.795311,131.947174 32.703999,132.497955 
	C32.161983,130.469467 31.203623,128.451263 31.153242,126.410622 
	C30.977057,119.274513 31.114277,112.130676 31.226263,104.537140 
z"/>
<path fill="#4087CA" opacity="1.000000" stroke="none" 
	d="
M276.464783,201.011597 
	C275.938812,199.712662 275.754456,198.122971 275.286682,195.804779 
	C275.002136,191.717117 275.001068,188.357941 275.000885,184.548981 
	C275.002411,181.400406 275.003052,178.701614 275.005371,175.558838 
	C275.010040,172.748108 275.013000,170.381378 275.015991,168.014648 
	C275.015991,168.014648 275.503021,168.007553 275.747101,168.420898 
	C276.313995,170.887589 276.636810,172.940933 276.959625,174.994263 
	C276.908539,183.569778 276.857483,192.145309 276.464783,201.011597 
z"/>
<path fill="#81CA8B" opacity="1.000000" stroke="none" 
	d="
M63.679497,98.530975 
	C63.228100,98.998528 62.879631,99.007118 62.268875,99.028816 
	C62.004276,98.866829 62.001957,98.691734 61.995293,98.253891 
	C61.992573,95.951126 61.994202,93.911095 61.992638,91.433372 
	C61.991653,89.283150 61.993855,87.570618 61.996643,84.979736 
	C61.997147,81.399902 61.997066,78.698433 62.006592,75.634567 
	C62.734840,74.540405 63.453487,73.808647 64.172134,73.076889 
	C64.084518,74.447701 63.996902,75.818520 63.967545,77.598923 
	C63.944672,84.696350 63.863548,91.384186 63.679497,98.530975 
z"/>
<path fill="#90C1C9" opacity="1.000000" stroke="none" 
	d="
M137.060059,120.510925 
	C136.375443,120.606918 135.391968,120.599220 134.868546,120.104637 
	C129.440933,114.976128 123.455994,114.849152 117.025307,117.873657 
	C116.499992,118.120728 115.807068,118.011421 115.017952,117.785355 
	C120.096848,111.667915 132.792725,113.533592 137.060059,120.510925 
z"/>
<path fill="#4995C7" opacity="1.000000" stroke="none" 
	d="
M244.852722,183.870499 
	C244.860504,183.421432 244.868286,182.972351 244.775482,182.201263 
	C244.726624,175.227829 244.778366,168.576401 245.238586,161.460724 
	C246.097015,160.997253 246.546982,160.998016 246.996948,160.998779 
	C246.998245,162.387848 246.999542,163.776901 247.000549,166.032623 
	C247.001404,169.598495 247.002533,172.297714 247.002045,175.447098 
	C246.999451,178.594635 246.998474,181.292023 246.639801,183.985153 
	C245.805634,183.944092 245.329163,183.907303 244.852722,183.870499 
z"/>
<path fill="#6EB3AF" opacity="1.000000" stroke="none" 
	d="
M277.060547,141.539566 
	C276.439423,141.829529 275.887726,141.654526 275.169342,140.792206 
	C275.000946,137.735168 274.999237,135.365448 274.998047,132.541931 
	C274.999023,129.060181 274.999512,126.032227 275.000000,123.004272 
	C275.422241,121.717422 275.844452,120.430573 276.621887,119.078812 
	C277.028076,126.367470 277.079010,133.721039 277.060547,141.539566 
z"/>
<path fill="#4087CA" opacity="1.000000" stroke="none" 
	d="
M139.812347,203.645340 
	C139.707855,204.010223 139.338181,204.003769 139.160339,203.622925 
	C138.979050,202.495132 138.975586,201.748169 138.980621,200.593506 
	C138.655533,197.789932 138.321930,195.394089 138.282379,192.709259 
	C138.710037,188.616058 138.843613,184.811813 138.984619,180.548920 
	C138.990936,176.732315 138.989822,173.374390 138.995682,169.600372 
	C139.004013,167.800064 139.005371,166.415817 139.006714,165.031570 
	C139.275223,165.031342 139.543533,165.038452 140.010788,165.045441 
	C140.263123,168.682663 140.316315,172.327347 140.223724,176.872482 
	C140.096283,185.520248 140.114655,193.267563 140.133041,201.014893 
	C140.060974,201.770081 139.988922,202.525269 139.812347,203.645340 
z"/>
<path fill="#9CDD80" opacity="1.000000" stroke="none" 
	d="
M139.246216,42.895065 
	C138.589066,43.461712 138.132935,43.707737 137.427002,44.033165 
	C135.573486,43.408447 133.983063,42.132309 132.363907,42.094769 
	C123.156898,41.881302 113.943024,41.963604 104.305069,41.599899 
	C103.872047,41.045341 103.865440,40.836197 103.858826,40.627052 
	C114.351555,40.686604 124.845512,40.682201 135.335541,40.883015 
	C136.716400,40.909451 138.077179,41.984856 139.246216,42.895065 
z"/>
<path fill="#5EA9B2" opacity="1.000000" stroke="none" 
	d="
M244.892883,129.460236 
	C245.407242,128.993668 245.861679,128.992035 246.656128,129.391022 
	C246.997208,130.861511 246.998291,131.931366 246.998596,133.451004 
	C246.999756,136.599106 247.001709,139.297409 247.003662,141.995728 
	C247.001953,143.063049 247.000244,144.130371 246.657974,145.598175 
	C245.864182,146.000244 245.410950,146.001801 244.957718,146.003357 
	C244.916138,140.643967 244.874557,135.284561 244.892883,129.460236 
z"/>
<path fill="#56A1BA" opacity="1.000000" stroke="none" 
	d="
M200.334381,137.699158 
	C200.282272,142.348557 200.161850,146.752441 199.711578,151.867889 
	C199.237991,154.055832 199.094238,155.532181 198.690308,156.766083 
	C198.285324,155.348816 198.140518,154.173996 197.996811,152.555237 
	C197.997986,149.742081 197.998077,147.372879 198.000336,144.604279 
	C198.332932,142.136017 198.663345,140.067123 198.993759,137.998230 
	C199.205338,137.730103 199.416901,137.461960 199.864197,137.082809 
	C200.155289,137.132416 200.210663,137.293030 200.334381,137.699158 
z"/>
<path fill="#56A1BA" opacity="1.000000" stroke="none" 
	d="
M244.891907,146.465332 
	C245.410950,146.001801 245.864182,146.000244 246.657181,145.998413 
	C246.998016,146.748489 246.999069,147.498825 247.000671,148.624268 
	C247.001190,151.698029 247.001175,154.396667 247.001801,157.544601 
	C247.000992,158.745178 246.999542,159.496475 246.997528,160.623260 
	C246.546982,160.998016 246.097015,160.997253 245.309448,160.996277 
	C244.923264,156.306473 244.874680,151.616898 244.891907,146.465332 
z"/>
<path fill="#90C1C9" opacity="1.000000" stroke="none" 
	d="
M140.417694,200.712891 
	C140.114655,193.267563 140.096283,185.520248 140.219482,177.311508 
	C140.474823,184.703690 140.588577,192.557297 140.417694,200.712891 
z"/>
<path fill="#6AB0B5" opacity="1.000000" stroke="none" 
	d="
M109.985596,155.015167 
	C109.627884,155.042923 109.270172,155.070663 108.643967,155.108246 
	C108.282837,152.376999 108.190208,149.635910 108.181183,146.446472 
	C108.646965,145.997177 109.029121,145.996246 109.702965,146.445068 
	C109.991623,149.601593 109.988609,152.308380 109.985596,155.015167 
z"/>
<path fill="#5FA4C0" opacity="1.000000" stroke="none" 
	d="
M277.053162,174.535675 
	C276.636810,172.940933 276.313995,170.887589 275.990601,168.416992 
	C276.130676,165.189148 276.271301,162.378571 276.697388,159.283508 
	C277.037476,164.025055 277.092102,169.051071 277.053162,174.535675 
z"/>
<path fill="#9BDF7D" opacity="1.000000" stroke="none" 
	d="
M172.852295,45.826855 
	C171.130905,44.789097 168.116272,44.017586 170.708710,40.684029 
	C172.091293,40.634483 173.153366,40.735863 174.610840,40.903641 
	C173.930542,41.501652 172.854797,42.033272 171.744263,42.582088 
	C172.104080,43.498558 172.494675,44.493404 172.852295,45.826855 
z"/>
<path fill="#5EA9B2" opacity="1.000000" stroke="none" 
	d="
M32.743454,132.808304 
	C32.795311,131.947174 32.886620,131.396408 33.240738,130.428497 
	C33.503548,130.011353 33.993752,130.014206 33.997032,130.361420 
	C34.661243,131.810577 35.322182,132.912506 35.986923,134.421997 
	C35.964146,135.647095 35.937569,136.464600 35.910988,137.282120 
	C35.230110,136.596970 34.549229,135.911804 33.628128,135.071564 
	C33.186241,134.317184 32.984577,133.717926 32.743454,132.808304 
z"/>
<path fill="#90C1C9" opacity="1.000000" stroke="none" 
	d="
M139.920410,125.678436 
	C138.979660,124.554306 138.042053,123.090813 137.132599,121.257797 
	C138.081696,122.371880 139.002625,123.855484 139.920410,125.678436 
z"/>
<path fill="#5EA9B2" opacity="1.000000" stroke="none" 
	d="
M60.905693,135.681305 
	C60.111877,136.609680 59.398540,137.252213 58.372883,137.671021 
	C58.373707,136.300461 58.686855,135.153580 59.330963,134.003357 
	C60.103104,133.994980 60.544277,133.989975 61.052780,134.049469 
	C61.120106,134.113983 61.254520,134.243240 61.254520,134.243240 
	C61.165073,134.627319 61.075623,135.011383 60.905693,135.681305 
z"/>
<path fill="#DCF0EC" opacity="1.000000" stroke="none" 
	d="
M267.951691,41.594505 
	C267.153229,41.724609 266.311279,41.547470 265.261414,41.117683 
	C266.005035,41.005775 266.956635,41.146515 267.951691,41.594505 
z"/>
<path fill="#E3F5E8" opacity="1.000000" stroke="none" 
	d="
M103.725273,40.461815 
	C103.865440,40.836197 103.872047,41.045341 103.823166,41.562889 
	C103.400093,41.862305 103.032509,41.853310 102.391174,41.809223 
	C102.104561,41.587677 102.091705,41.401230 102.107788,40.933971 
	C102.621719,40.534302 103.106720,40.415436 103.725273,40.461815 
z"/>
<path fill="#E3F5E8" opacity="1.000000" stroke="none" 
	d="
M42.805183,40.703022 
	C42.489510,41.207813 42.012188,41.504322 41.241501,41.755592 
	C41.513264,41.305149 42.078400,40.899944 42.805183,40.703022 
z"/>
<path fill="#90C1C9" opacity="1.000000" stroke="none" 
	d="
M140.627350,130.895416 
	C140.165756,131.104202 139.849365,131.033752 139.296356,130.904343 
	C139.067657,130.464233 139.078659,130.069229 139.120407,129.379440 
	C139.351547,129.063507 139.551971,129.042328 140.055267,129.000366 
	C140.495224,129.529724 140.632339,130.079895 140.627350,130.895416 
z"/>
<path fill="#E1F0FD" opacity="1.000000" stroke="none" 
	d="
M167.871796,126.142120 
	C168.076508,126.740005 168.014664,127.489601 167.838074,128.597076 
	C167.683975,128.067917 167.644608,127.180870 167.871796,126.142120 
z"/>
<path fill="#9FDB91" opacity="1.000000" stroke="none" 
	d="
M32.899261,52.782555 
	C32.746700,53.566757 32.491619,54.137043 31.916985,54.791939 
	C31.679392,54.150429 31.761353,53.424313 31.949869,52.348316 
	C32.367210,52.105404 32.613983,52.295475 32.899261,52.782555 
z"/>
<path fill="#E3F5E8" opacity="1.000000" stroke="none" 
	d="
M33.837952,47.168129 
	C34.052231,47.402401 33.996857,47.759541 33.689331,48.470371 
	C33.437180,48.824062 32.980232,48.983139 32.945030,48.953506 
	C32.909832,48.923870 32.837288,48.867245 32.837288,48.867245 
	C33.080956,48.341827 33.324627,47.816410 33.837952,47.168129 
z"/>
<path fill="#9BDF7D" opacity="1.000000" stroke="none" 
	d="
M38.586994,43.584808 
	C38.450363,43.962036 38.000099,44.435532 37.193893,44.924004 
	C37.316422,44.519684 37.794891,44.100380 38.586994,43.584808 
z"/>
<path fill="#5EA9B2" opacity="1.000000" stroke="none" 
	d="
M61.956642,132.046936 
	C61.964573,132.222870 61.972507,132.398819 62.014961,132.837158 
	C62.006451,133.430008 61.873219,133.718857 61.452156,134.104675 
	C61.254520,134.243240 61.120106,134.113983 61.078808,133.760666 
	C61.343887,132.953873 61.650261,132.500397 61.956642,132.046936 
z"/>
<path fill="#E1F0FD" opacity="1.000000" stroke="none" 
	d="
M168.174210,204.858078 
	C168.390610,204.870987 168.600525,205.157761 168.802109,205.715500 
	C168.585098,205.701630 168.376404,205.416779 168.174210,204.858078 
z"/>
<path fill="#6AB0B5" opacity="1.000000" stroke="none" 
	d="
M108.206505,178.244049 
	C108.417534,178.164276 108.570175,178.324265 108.666565,178.512970 
	C108.699364,178.577194 108.590500,178.713791 108.405502,178.910477 
	C108.218445,178.834106 108.172264,178.664581 108.206505,178.244049 
z"/>
<path fill="#E3F5E8" opacity="1.000000" stroke="none" 
	d="
M33.001976,50.000641 
	C33.001976,50.000641 32.566936,50.133095 32.346626,50.188217 
	C32.233753,49.908218 32.341187,49.573093 32.642956,49.052608 
	C32.837288,48.867245 32.909832,48.923870 32.936882,49.208195 
	C32.976616,49.661896 32.989296,49.831268 33.001976,50.000641 
z"/>
<path fill="#6EB3AF" opacity="1.000000" stroke="none" 
	d="
M112.918625,119.196999 
	C113.185226,119.210251 113.323959,119.401360 113.462700,119.592468 
	C113.360016,119.665405 113.257332,119.738342 112.958344,119.811646 
	C112.762032,119.812012 112.790764,119.374855 112.918625,119.196999 
z"/>
<path fill="#9CDD80" opacity="1.000000" stroke="none" 
	d="
M124.869293,59.199898 
	C125.087685,59.683041 124.987015,60.208595 124.329559,61.009422 
	C123.526047,61.891026 123.279312,62.497360 123.032578,63.103691 
	C122.998070,63.405518 122.866829,63.656834 122.176926,64.035431 
	C121.494209,64.500862 121.273415,64.788498 121.052628,65.076126 
	C121.052628,65.076126 121.052818,64.998375 120.809097,65.174011 
	C120.396858,65.924019 120.228340,66.498383 120.059814,67.072754 
	C120.059814,67.072754 120.001579,67.017082 119.803223,67.125664 
	C119.420158,67.514565 119.235451,67.794891 119.050751,68.075218 
	C119.050751,68.075218 119.097191,68.041885 118.740646,68.038635 
	C117.254845,68.357292 116.125595,68.679192 114.658676,68.948395 
	C111.880981,67.263618 109.440941,65.631546 106.966171,63.655918 
	C104.621315,60.542339 102.311195,57.772316 100.001068,55.002289 
	C104.570076,55.465408 109.153641,56.388004 113.703400,56.243790 
	C117.234451,56.131866 120.723282,54.688015 124.578369,53.751808 
	C126.776169,55.206089 117.475456,57.807034 124.869293,59.199898 
z"/>
<path fill="#A1E284" opacity="1.000000" stroke="none" 
	d="
M99.641006,54.958241 
	C102.311195,57.772316 104.621315,60.542339 106.579117,63.649879 
	C99.998016,61.291203 93.852097,59.977993 87.353058,63.577621 
	C85.673485,64.507889 83.142776,63.901459 81.109879,63.741978 
	C81.478348,62.988998 81.739975,62.494957 82.001602,62.000916 
	C84.576843,59.541279 87.152084,57.081642 89.863510,54.311459 
	C93.469543,50.483326 96.407761,52.368336 99.641006,54.958241 
z"/>
<path fill="#9CDD80" opacity="1.000000" stroke="none" 
	d="
M129.675735,54.043938 
	C128.640396,55.725254 127.256241,57.433247 125.543159,59.152657 
	C126.585129,57.466255 127.956017,55.768433 129.675735,54.043938 
z"/>
<path fill="#9CDD80" opacity="1.000000" stroke="none" 
	d="
M132.726410,50.070244 
	C132.596420,50.665131 132.133438,51.288826 131.389130,52.007507 
	C131.536331,51.434677 131.964874,50.766861 132.726410,50.070244 
z"/>
<path fill="#9CDD80" opacity="1.000000" stroke="none" 
	d="
M135.728104,46.068398 
	C135.583969,46.649998 135.106735,47.259491 134.355865,47.980125 
	C134.519821,47.426273 134.957413,46.761280 135.728104,46.068398 
z"/>
<path fill="#9CDD80" opacity="1.000000" stroke="none" 
	d="
M133.836517,48.192482 
	C133.918976,48.602283 133.730392,49.159290 133.292145,49.885338 
	C133.216827,49.482815 133.391159,48.911251 133.836517,48.192482 
z"/>
<path fill="#9CDD80" opacity="1.000000" stroke="none" 
	d="
M130.845551,52.201694 
	C130.919724,52.610867 130.722153,53.158508 130.270981,53.864784 
	C130.202866,53.462337 130.388336,52.901253 130.845551,52.201694 
z"/>
<path fill="#9CDD80" opacity="1.000000" stroke="none" 
	d="
M136.853882,44.222198 
	C136.939133,44.640156 136.748322,45.192818 136.299545,45.901421 
	C136.220322,45.490547 136.399078,44.923721 136.853882,44.222198 
z"/>
<path fill="#9BDF7D" opacity="1.000000" stroke="none" 
	d="
M34.982018,46.982132 
	C35.089634,47.110416 35.215313,47.256565 35.340992,47.402718 
	C35.254795,47.350643 35.168602,47.298573 35.023117,47.105324 
	C34.963829,46.964142 35.000084,47.000000 34.982018,46.982132 
z"/>
<path fill="#9BDF7D" opacity="1.000000" stroke="none" 
	d="
M33.241302,49.848175 
	C32.989296,49.831268 32.976616,49.661896 32.972084,49.237831 
	C32.980232,48.983139 33.437180,48.824062 33.664894,48.740746 
	C33.755283,49.003517 33.617958,49.349613 33.241302,49.848175 
z"/>
<path fill="#4E93E4" opacity="1.000000" stroke="none" 
	d="
M89.972038,214.029144 
	C87.938286,214.023911 85.904526,214.018661 83.434692,214.010254 
	C84.489326,212.129181 85.980049,210.251266 87.735992,208.186493 
	C89.980408,205.901031 91.959595,203.802429 94.306801,201.359604 
	C95.114845,201.016266 95.554878,201.017151 95.999878,201.381561 
	C97.667381,203.499069 99.329910,205.253052 101.142181,207.308228 
	C102.533585,209.738129 103.775230,211.866852 104.549683,213.998688 
	C99.379005,214.010941 94.675522,214.020050 89.972038,214.029144 
z"/>
<path fill="#3680E3" opacity="1.000000" stroke="none" 
	d="
M60.975376,213.640778 
	C58.637123,213.992004 56.254745,213.995590 53.425327,213.991653 
	C53.784710,212.400421 54.591129,210.816711 55.866871,208.311295 
	C57.863697,210.275574 59.397472,211.784348 60.975376,213.640778 
z"/>
<path fill="#3C89D8" opacity="1.000000" stroke="none" 
	d="
M95.994904,201.018036 
	C95.554878,201.017151 95.114845,201.016266 94.345123,201.019379 
	C90.545921,197.780380 87.076424,194.537354 83.305145,191.145172 
	C82.339554,189.573410 81.675735,188.150787 81.003639,186.373505 
	C80.995361,186.018845 81.008232,185.537781 81.479324,185.283127 
	C89.959602,185.038651 97.968773,185.048813 106.012939,185.372345 
	C106.697800,186.455826 107.347672,187.225937 107.997101,188.246170 
	C107.996132,188.663071 107.995628,188.829819 107.650421,189.035141 
	C103.535446,193.055145 99.765167,197.036591 95.994904,201.018036 
z"/>
<path fill="#9BDF7D" opacity="1.000000" stroke="none" 
	d="
M176.960815,51.696732 
	C176.288696,51.280128 175.630264,50.498753 174.926880,49.405277 
	C175.579453,49.839436 176.276978,50.585697 176.960815,51.696732 
z"/>
<path fill="#9BDF7D" opacity="1.000000" stroke="none" 
	d="
M173.943085,47.753311 
	C173.584625,47.612633 173.223099,47.159962 172.849121,46.406242 
	C173.204437,46.550571 173.572235,46.995949 173.943085,47.753311 
z"/>
<path fill="#9BDF7D" opacity="1.000000" stroke="none" 
	d="
M174.849915,48.850132 
	C174.658035,48.904205 174.378342,48.715633 174.014130,48.281311 
	C174.207123,48.226196 174.484604,48.416843 174.849915,48.850132 
z"/>
<path fill="#94D781" opacity="1.000000" stroke="none" 
	d="
M64.625702,73.088394 
	C63.453487,73.808647 62.734840,74.540405 61.664577,75.580002 
	C60.361046,74.662460 59.409134,73.437073 58.282188,71.986374 
	C56.828350,72.966949 55.523510,73.847038 54.218674,74.727119 
	C54.230927,74.303543 54.243176,73.879959 54.255428,73.456375 
	C50.731781,72.970856 47.208130,72.485329 43.055893,71.913193 
	C43.891518,74.097038 44.446362,75.547096 45.001205,76.997147 
	C42.294270,77.330818 39.587337,77.664482 36.441250,77.997093 
	C37.583736,76.135796 39.165371,74.275551 41.105698,71.993446 
	C39.165462,69.860954 37.227913,67.731422 35.143856,65.303131 
	C37.601131,65.266273 40.283993,65.218185 42.791428,65.857796 
	C47.317459,67.012299 50.136063,64.073692 52.690956,61.575527 
	C55.992455,58.347343 58.520477,58.446239 61.839073,62.149521 
	C66.076385,66.412766 69.851410,70.221352 75.864967,68.319321 
	C74.612450,72.331688 77.044617,71.848671 79.310425,71.773499 
	C87.881569,71.489128 96.454285,71.189445 105.028236,71.119156 
	C106.330383,71.108475 107.642235,72.280357 108.949593,72.905266 
	C94.326149,72.970146 79.702705,73.035027 64.625702,73.088394 
z"/>
<path fill="#9CDD80" opacity="1.000000" stroke="none" 
	d="
M75.999695,67.999695 
	C69.851410,70.221352 66.076385,66.412766 62.150856,62.304703 
	C68.356461,62.001030 74.711075,62.000641 81.533646,62.000584 
	C81.739975,62.494957 81.478348,62.988998 80.926208,64.004059 
	C79.090355,65.683281 77.545021,66.841484 75.999695,67.999695 
z"/>
<path fill="#9EDC8B" opacity="1.000000" stroke="none" 
	d="
M75.864967,68.319321 
	C77.545021,66.841484 79.090355,65.683281 80.819366,64.263000 
	C83.142776,63.901459 85.673485,64.507889 87.353058,63.577621 
	C93.852097,59.977993 99.998016,61.291203 106.613846,63.993431 
	C109.440941,65.631546 111.880981,67.263618 114.529083,69.254623 
	C114.505623,70.458527 114.274101,71.303513 114.042587,72.148499 
	C112.601967,72.436859 111.161339,72.725227 109.335159,72.959427 
	C107.642235,72.280357 106.330383,71.108475 105.028236,71.119156 
	C96.454285,71.189445 87.881569,71.489128 79.310425,71.773499 
	C77.044617,71.848671 74.612450,72.331688 75.864967,68.319321 
z"/>
<path fill="#94D781" opacity="1.000000" stroke="none" 
	d="
M114.383049,72.082138 
	C114.274101,71.303513 114.505623,70.458527 114.866745,69.307320 
	C116.125595,68.679192 117.254845,68.357292 118.744095,68.067009 
	C117.643906,69.404343 116.183716,70.710060 114.383049,72.082138 
z"/>
<path fill="#94D781" opacity="1.000000" stroke="none" 
	d="
M123.288376,62.922371 
	C123.279312,62.497360 123.526047,61.891026 124.106949,61.183907 
	C124.142136,61.635761 123.843147,62.188404 123.288376,62.922371 
z"/>
<path fill="#94D781" opacity="1.000000" stroke="none" 
	d="
M120.318192,66.908699 
	C120.228340,66.498383 120.396858,65.924019 120.836899,65.201187 
	C120.931137,65.616699 120.753853,66.180672 120.318192,66.908699 
z"/>
<path fill="#94D781" opacity="1.000000" stroke="none" 
	d="
M119.302353,67.997910 
	C119.235451,67.794891 119.420158,67.514565 119.842339,67.135254 
	C119.904526,67.331039 119.729240,67.625816 119.302353,67.997910 
z"/>
<path fill="#94D781" opacity="1.000000" stroke="none" 
	d="
M121.324081,65.011856 
	C121.273415,64.788498 121.494209,64.500862 121.985374,64.136482 
	C122.035683,64.355690 121.815613,64.651642 121.324081,65.011856 
z"/>
<path fill="#4D88D1" opacity="1.000000" stroke="none" 
	d="
M181.563889,216.707550 
	C179.131729,215.358765 176.699570,214.009979 174.124100,212.338531 
	C173.980774,212.015884 174.037613,211.948380 174.433441,211.966904 
	C179.821259,212.658569 184.800797,213.772751 189.807770,213.913910 
	C200.530853,214.216217 211.268112,214.015701 222.208878,214.280502 
	C223.284286,214.691696 224.150391,214.843506 225.342957,214.995514 
	C226.104385,214.999374 226.539337,215.003067 226.984955,215.220459 
	C226.995605,215.434174 227.020340,215.861404 226.553085,215.920990 
	C212.038391,216.053848 197.990952,216.127106 183.654388,216.156372 
	C182.855118,216.302292 182.344986,216.492203 181.765320,216.669312 
	C181.695770,216.656494 181.563889,216.707550 181.563889,216.707550 
z"/>
<path fill="#3E7DCD" opacity="1.000000" stroke="none" 
	d="
M227.020340,215.861404 
	C227.020340,215.861404 226.995605,215.434174 227.285172,214.926086 
	C236.684769,214.280930 245.804245,214.347946 254.901077,213.926270 
	C259.939484,213.692719 264.939941,212.641708 270.015625,212.014557 
	C270.073700,212.069931 270.189545,212.181000 270.189545,212.181000 
	C268.046661,213.447113 265.903809,214.713226 262.935303,216.001328 
	C250.413239,215.969330 238.716782,215.915359 227.020340,215.861404 
z"/>
<path fill="#EEFDFF" opacity="1.000000" stroke="none" 
	d="
M262.998871,217.006927 
	C261.773376,217.337769 260.548523,217.954437 259.322296,217.957245 
	C234.745819,218.013474 210.169174,218.007584 185.592636,217.970947 
	C184.474274,217.969269 183.356491,217.561722 181.901169,217.025375 
	C181.563889,216.707550 181.695770,216.656494 182.114655,216.783585 
	C183.018890,216.942337 183.504242,216.973999 184.458862,217.000458 
	C210.951736,216.999146 236.975296,217.003036 262.998871,217.006927 
z"/>
<path fill="#B3DAFF" opacity="1.000000" stroke="none" 
	d="
M263.012695,216.794098 
	C236.975296,217.003036 210.951736,216.999146 184.447021,216.799118 
	C183.965866,216.602982 183.943512,216.200363 183.943512,216.200363 
	C197.990952,216.127106 212.038391,216.053848 226.553085,215.920990 
	C238.716782,215.915359 250.413239,215.969330 262.578064,216.089249 
	C263.046478,216.155197 263.026520,216.581268 263.012695,216.794098 
z"/>
<path fill="#4D88D1" opacity="1.000000" stroke="none" 
	d="
M172.898605,211.107681 
	C172.493576,210.741043 172.088547,210.374405 171.563354,209.759323 
	C171.443176,209.510895 171.734619,209.231277 172.127502,209.272003 
	C172.696777,209.862778 172.873169,210.412827 173.010422,210.997620 
	C172.971283,211.032349 172.898605,211.107681 172.898605,211.107681 
z"/>
<path fill="#3E7DCD" opacity="1.000000" stroke="none" 
	d="
M270.001587,210.984665 
	C270.219482,210.999573 270.437378,211.014496 270.980530,211.073013 
	C271.100494,211.403976 270.895142,211.691345 270.439667,212.079865 
	C270.189545,212.181000 270.073700,212.069931 270.028412,211.771164 
	C269.983124,211.472397 270.001587,210.984665 270.001587,210.984665 
z"/>
<path fill="#4D88D1" opacity="1.000000" stroke="none" 
	d="
M173.949753,212.047272 
	C173.641190,211.909134 173.363632,211.739609 172.992340,211.338882 
	C172.898605,211.107681 172.971283,211.032349 173.220901,211.111237 
	C173.733765,211.387360 173.922791,211.640121 174.037613,211.948380 
	C174.037613,211.948380 173.980774,212.015884 173.949753,212.047272 
z"/>
<path fill="#EEFDFF" opacity="1.000000" stroke="none" 
	d="
M34.327660,217.331299 
	C64.708054,217.031693 95.385010,217.018890 126.530319,217.013657 
	C125.768700,217.347168 124.539238,217.955490 123.308685,217.957672 
	C94.392159,218.009048 65.475510,217.997452 36.558899,217.977341 
	C35.913925,217.976898 35.269115,217.743073 34.327660,217.331299 
z"/>
<path fill="#5199D0" opacity="1.000000" stroke="none" 
	d="
M247.003662,174.996948 
	C247.002533,172.297714 247.001404,169.598495 247.001053,166.449326 
	C255.799225,169.734009 265.052734,167.308136 274.545532,168.009247 
	C275.013000,170.381378 275.010040,172.748108 274.582275,175.568100 
	C269.801086,176.347580 265.400879,176.407318 261.106781,177.112839 
	C258.971344,177.463699 257.030518,178.999084 255.000824,179.999298 
	C255.000000,180.000000 254.998169,180.001038 254.650070,179.943115 
	C251.869202,178.255768 249.436432,176.626358 247.003662,174.996948 
z"/>
<path fill="#67AFB7" opacity="1.000000" stroke="none" 
	d="
M126.938950,136.654434 
	C125.024254,139.435684 123.047279,141.868927 121.033508,144.647415 
	C119.688583,146.099777 118.380455,147.206879 116.787888,148.656799 
	C116.335991,148.999756 116.168549,148.999878 115.963867,148.648071 
	C113.951080,146.530365 111.975540,144.764572 110.000000,142.998779 
	C110.000000,140.560532 110.000000,138.122284 110.000000,136.306427 
	C115.997726,136.306427 121.437202,136.306427 126.938950,136.654434 
z"/>
<path fill="#64ABBA" opacity="1.000000" stroke="none" 
	d="
M109.999023,143.373123 
	C111.975540,144.764572 113.951080,146.530365 115.817276,148.948242 
	C113.794769,151.414581 111.881622,153.228836 109.968475,155.043091 
	C109.968475,155.043091 109.967804,155.020981 109.976700,155.018066 
	C109.988609,152.308380 109.991623,149.601593 109.989998,146.443741 
	C109.989578,145.244278 109.993813,144.495865 109.999023,143.373123 
z"/>
<path fill="#559EC8" opacity="1.000000" stroke="none" 
	d="
M139.003723,164.618500 
	C139.005371,166.415817 139.004013,167.800064 138.620987,169.552216 
	C136.372772,169.306976 134.520416,168.220337 132.637207,168.163956 
	C125.097527,167.938202 117.548279,168.032211 110.002579,168.007935 
	C109.994820,165.309113 109.987061,162.610306 110.384506,159.505966 
	C115.887886,159.122070 121.338409,163.974442 125.998604,157.991150 
	C128.527557,157.618073 131.056503,157.245010 134.045792,156.804031 
	C134.950104,157.601700 136.492126,158.961868 139.000748,161.174637 
	C139.000748,161.278732 139.000748,162.742081 139.003723,164.618500 
z"/>
<path fill="#5FA4C0" opacity="1.000000" stroke="none" 
	d="
M125.852707,157.693695 
	C121.338409,163.974442 115.887886,159.122070 110.389023,159.056503 
	C109.981476,157.953033 109.974617,156.893509 109.968117,155.438538 
	C111.881622,153.228836 113.794769,151.414581 115.854523,149.300171 
	C116.168549,148.999878 116.335991,148.999756 116.754677,148.999786 
	C119.906212,151.798706 122.806503,154.597458 125.852707,157.693695 
z"/>
<path fill="#57A3B9" opacity="1.000000" stroke="none" 
	d="
M197.998169,145.003662 
	C197.998077,147.372879 197.997986,149.742081 197.610321,152.510056 
	C196.272141,152.654037 195.303833,152.126602 194.373703,152.187027 
	C185.945953,152.734573 177.524872,153.384872 169.101837,154.005096 
	C168.727478,152.263367 168.353104,150.521637 168.189728,148.298462 
	C168.458282,147.717209 168.589142,147.575546 168.560333,147.525024 
	C168.451965,147.335205 168.291504,147.175125 168.150558,147.003906 
	C168.113754,145.297913 168.076965,143.591904 168.100189,141.464264 
	C168.568832,141.030182 168.977448,141.017731 169.691589,141.450668 
	C169.997116,144.787750 169.997116,147.679474 169.997116,151.433060 
	C173.802765,148.290207 176.401367,146.144180 179.454315,143.998856 
	C185.938492,144.334244 191.968338,144.668961 197.998169,145.003662 
z"/>
<path fill="#5EA9B2" opacity="1.000000" stroke="none" 
	d="
M198.000336,144.604294 
	C191.968338,144.668961 185.938492,144.334244 179.601196,143.697845 
	C181.196426,141.264694 183.099121,139.133270 185.001831,137.001831 
	C186.718582,135.783295 188.435333,134.564774 190.096680,133.385559 
	C192.874298,134.926239 195.579361,136.426651 198.639099,137.962646 
	C198.663345,140.067123 198.332932,142.136017 198.000336,144.604294 
z"/>
<path fill="#67AFB7" opacity="1.000000" stroke="none" 
	d="
M184.547546,137.000870 
	C183.099121,139.133270 181.196426,141.264694 179.146851,143.697144 
	C176.401367,146.144180 173.802765,148.290207 169.997116,151.433060 
	C169.997116,147.679474 169.997116,144.787750 169.998581,141.447418 
	C169.782043,137.121201 171.335876,135.712570 175.337570,136.527390 
	C178.170731,137.104263 181.168808,136.871353 184.547546,137.000870 
z"/>
<path fill="#7DC39E" opacity="1.000000" stroke="none" 
	d="
M32.997864,113.010239 
	C32.993687,111.293915 32.989506,109.577583 32.987320,107.432564 
	C42.360073,106.668488 51.730835,106.333107 61.552170,105.995361 
	C62.004799,108.036224 62.006851,110.079468 61.536491,112.561234 
	C51.708668,113.003250 42.353268,113.006744 32.997864,113.010239 
z"/>
<path fill="#6FB7AD" opacity="1.000000" stroke="none" 
	d="
M246.999390,133.001221 
	C246.998291,131.931366 246.997208,130.861511 246.996826,129.390030 
	C246.997650,127.275146 246.997726,125.561890 246.999512,123.419586 
	C256.021698,122.994148 265.042206,122.997757 274.531342,123.002823 
	C274.999512,126.032227 274.999023,129.060181 274.576111,132.553894 
	C265.101288,134.473602 256.049957,134.311340 246.999390,133.001221 
z"/>
<path fill="#8AD380" opacity="1.000000" stroke="none" 
	d="
M45.306725,77.149170 
	C44.446362,75.547096 43.891518,74.097038 43.055893,71.913193 
	C47.208130,72.485329 50.731781,72.970856 54.255428,73.456375 
	C54.243176,73.879959 54.230927,74.303543 54.218674,74.727119 
	C55.523510,73.847038 56.828350,72.966949 58.282188,71.986374 
	C59.409134,73.437073 60.361046,74.662460 61.654976,75.942406 
	C61.997066,78.698433 61.997147,81.399902 61.994820,84.551605 
	C53.893875,88.047318 51.088562,79.833488 45.306725,77.149170 
z"/>
<path fill="#6AB0B5" opacity="1.000000" stroke="none" 
	d="
M246.998596,133.451004 
	C256.049957,134.311340 265.101288,134.473602 274.575653,133.007690 
	C274.999237,135.365448 275.000946,137.735168 275.001923,140.548172 
	C266.860779,141.016266 258.720032,141.013992 250.580292,141.102631 
	C249.639465,141.112869 248.704147,141.628326 247.384964,141.952637 
	C247.001709,139.297409 246.999756,136.599106 246.998596,133.451004 
z"/>
<path fill="#4890D9" opacity="1.000000" stroke="none" 
	d="
M244.881607,183.912735 
	C245.329163,183.907303 245.805634,183.944092 246.809540,184.307953 
	C249.423660,185.367493 251.510330,186.100006 253.597000,186.832504 
	C254.064606,184.887329 254.542313,182.944489 254.989563,180.994644 
	C255.061874,180.679367 254.998718,180.333023 254.998169,180.001038 
	C254.998169,180.001038 255.000000,180.000000 255.365845,180.071045 
	C257.189545,185.043747 260.918182,185.363434 265.175842,185.047913 
	C268.433899,184.806488 271.724091,184.999191 275.000000,184.998779 
	C275.001068,188.357941 275.002136,191.717117 275.002197,195.533264 
	C275.103394,198.951050 273.931580,199.021622 271.314728,198.243759 
	C265.589539,196.541931 259.703461,195.381348 253.245224,193.728714 
	C249.966232,191.633270 247.604340,188.155914 243.597748,192.003906 
	C237.840836,192.293030 232.864990,196.035416 226.957031,192.324692 
	C224.639801,190.869278 220.250229,193.078110 216.844971,192.888901 
	C213.348053,192.694626 211.290619,193.985321 209.647491,196.966217 
	C206.534744,194.285873 203.769440,191.643875 200.868423,188.717133 
	C199.820999,187.287994 198.909271,186.143570 197.998718,184.663849 
	C198.003067,183.881332 198.006241,183.434097 198.330200,182.992340 
	C199.078445,182.994263 199.505859,182.990753 199.933289,182.987228 
	C200.133560,183.251587 200.359543,183.491745 201.097473,184.160339 
	C215.516357,184.722443 229.448959,184.843567 243.381836,184.897171 
	C243.920502,184.899246 244.461655,184.252716 245.001648,183.908417 
	C245.001648,183.908417 244.910507,183.954971 244.881607,183.912735 
z"/>
<path fill="#3680E3" opacity="1.000000" stroke="none" 
	d="
M269.732544,210.804520 
	C270.001587,210.984665 269.983124,211.472397 269.970337,211.715790 
	C264.939941,212.641708 259.939484,213.692719 254.901077,213.926270 
	C245.804245,214.347946 236.684769,214.280930 227.274506,214.712372 
	C226.539337,215.003067 226.104385,214.999374 225.335510,214.748322 
	C225.001602,214.500946 224.990616,214.006378 224.968811,213.684204 
	C225.026901,208.004181 229.453140,206.380081 233.443542,203.996613 
	C243.931351,204.663483 253.969269,205.328873 264.007202,205.994247 
	C265.825989,207.537628 267.644745,209.080994 269.732544,210.804520 
z"/>
<path fill="#3884DC" opacity="1.000000" stroke="none" 
	d="
M263.860229,205.695999 
	C253.969269,205.328873 243.931351,204.663483 233.482635,203.651947 
	C236.716232,199.538757 240.360596,195.771713 244.004974,192.004684 
	C247.604340,188.155914 249.966232,191.633270 252.804581,193.729156 
	C256.572327,197.799652 260.142792,201.598694 263.860229,205.695999 
z"/>
<path fill="#7AC491" opacity="1.000000" stroke="none" 
	d="
M267.537994,96.999847 
	C271.926147,98.207458 269.060211,99.869720 268.149536,101.697693 
	C265.862518,103.907028 263.727356,105.809532 261.295471,107.856018 
	C257.835052,107.639023 254.656021,106.898964 251.511993,107.025902 
	C248.493668,107.147781 246.697189,106.339859 246.290405,103.319183 
	C246.049149,101.527710 246.085846,99.698807 245.996979,97.450066 
	C253.020493,97.008965 260.044586,97.004524 267.537994,96.999847 
z"/>
<path fill="#6AB0B5" opacity="1.000000" stroke="none" 
	d="
M59.000000,134.006714 
	C58.686855,135.153580 58.373707,136.300461 58.116066,137.811462 
	C58.171577,138.175613 58.117764,138.146973 57.722679,138.122101 
	C51.302834,140.795044 45.162025,141.485657 38.847157,139.165726 
	C38.847157,139.165726 38.873783,139.090912 38.740612,138.822830 
	C37.974667,138.402405 37.341892,138.250061 36.709122,138.097717 
	C36.430870,138.039215 36.212738,137.891815 35.982857,137.468811 
	C35.937569,136.464600 35.964146,135.647095 36.415390,134.418320 
	C42.374588,134.989075 47.811142,135.874039 53.307526,133.271683 
	C54.762787,132.582657 57.079071,133.712189 59.000000,134.006714 
z"/>
<path fill="#5EA9B2" opacity="1.000000" stroke="none" 
	d="
M38.919888,139.516724 
	C45.162025,141.485657 51.302834,140.795044 57.715374,138.092499 
	C52.419781,143.382370 45.582752,144.019150 38.919888,139.516724 
z"/>
<path fill="#5EA9B2" opacity="1.000000" stroke="none" 
	d="
M36.911377,138.362854 
	C37.341892,138.250061 37.974667,138.402405 38.772255,138.846817 
	C38.329254,138.968597 37.721447,138.798294 36.911377,138.362854 
z"/>
<path fill="#3F80B9" opacity="1.000000" stroke="none" 
	d="
M105.977951,185.058975 
	C97.968773,185.048813 89.959602,185.038651 81.483719,185.042542 
	C82.020012,184.714523 83.019676,184.087387 84.026527,184.075668 
	C91.691711,183.986298 99.358292,184.017166 107.487396,183.980927 
	C107.950356,183.951248 107.987244,183.990509 107.826241,184.252655 
	C107.102806,184.696182 106.540382,184.877579 105.977951,185.058975 
z"/>
<path fill="#4D88D1" opacity="1.000000" stroke="none" 
	d="
M89.675766,214.317047 
	C94.675522,214.020050 99.379005,214.010941 104.801460,214.004150 
	C105.688271,214.014359 105.856117,214.022247 106.023956,214.030151 
	C110.504059,214.355057 114.983360,214.691513 119.464630,214.999496 
	C121.411667,215.133316 123.362732,215.208588 125.631332,215.560333 
	C105.952538,215.866119 85.954391,215.922012 65.494598,215.915268 
	C70.376183,215.568375 75.719139,215.278946 81.062729,215.001968 
	C83.834404,214.858292 86.607201,214.736572 89.675766,214.317047 
z"/>
<path fill="#519DC1" opacity="1.000000" stroke="none" 
	d="
M169.038605,154.418167 
	C177.524872,153.384872 185.945953,152.734573 194.373703,152.187027 
	C195.303833,152.126602 196.272141,152.654037 197.609238,152.954010 
	C198.140518,154.173996 198.285324,155.348816 198.703354,157.101013 
	C198.966446,158.125320 198.956299,158.572235 198.714722,159.188751 
	C198.325058,159.900497 198.166855,160.442612 197.615341,160.996368 
	C193.436783,161.349365 189.630569,161.543610 185.872925,162.078705 
	C182.884079,162.504318 179.954559,163.346512 176.654648,163.967957 
	C173.916626,162.287094 171.522675,160.641998 169.128723,158.996902 
	C169.077606,157.608353 169.026489,156.219788 169.038605,154.418167 
z"/>
<path fill="#539BCD" opacity="1.000000" stroke="none" 
	d="
M169.061584,159.459778 
	C171.522675,160.641998 173.916626,162.287094 176.800583,164.265854 
	C179.859619,167.398911 182.428665,170.198318 184.670593,173.144012 
	C179.564362,174.196198 174.785233,175.102066 170.006104,176.007935 
	C169.776566,175.722946 169.547028,175.437958 169.067490,175.029755 
	C168.876480,169.911926 168.935471,164.917297 169.061584,159.459778 
z"/>
<path fill="#6EB3AF" opacity="1.000000" stroke="none" 
	d="
M168.092178,147.248672 
	C168.291504,147.175125 168.451965,147.335205 168.560333,147.525024 
	C168.589142,147.575546 168.458282,147.717209 168.250488,147.904663 
	C168.078094,147.826004 168.055939,147.659714 168.092178,147.248672 
z"/>
<path fill="#3F80B9" opacity="1.000000" stroke="none" 
	d="
M244.531525,183.914291 
	C244.461655,184.252716 243.920502,184.899246 243.381836,184.897171 
	C229.448959,184.843567 215.516357,184.722443 201.293640,184.311584 
	C215.356186,183.980164 229.708786,183.950165 244.531525,183.914291 
z"/>
<path fill="#3F80B9" opacity="1.000000" stroke="none" 
	d="
M198.946167,159.019150 
	C198.956299,158.572235 198.966446,158.125320 198.963547,157.343475 
	C199.094238,155.532181 199.237991,154.055832 199.649109,152.335388 
	C199.938950,162.078506 199.961426,172.065720 199.958588,182.520081 
	C199.505859,182.990753 199.078445,182.994263 198.379257,182.602188 
	C198.084335,179.132507 198.061172,176.058426 198.197815,172.607239 
	C198.552490,168.489365 198.747330,164.748611 198.956879,160.676270 
	C198.963104,159.902863 198.954620,159.460999 198.946167,159.019150 
z"/>
<path fill="#4E93E4" opacity="1.000000" stroke="none" 
	d="
M201.004120,189.001877 
	C203.769440,191.643875 206.534744,194.285873 209.796234,197.266815 
	C213.832840,201.394012 217.491531,205.081680 220.846985,209.027267 
	C221.960571,210.336700 222.294678,212.309006 222.738647,213.986664 
	C222.492142,213.995056 221.999557,214.021118 221.999557,214.021118 
	C211.268112,214.015701 200.530853,214.216217 189.807770,213.913910 
	C184.800797,213.772751 179.821259,212.658569 174.433441,211.966904 
	C173.922791,211.640121 173.733765,211.387360 173.260040,211.076508 
	C172.873169,210.412827 172.696777,209.862778 172.281372,209.141205 
	C171.363739,205.602539 170.685089,202.235397 170.354218,198.399689 
	C172.800903,196.287033 174.899841,194.642899 177.040039,193.370819 
	C177.917007,197.056686 180.284363,198.302429 183.406067,197.953552 
	C187.435928,197.503159 191.454498,196.089233 195.432983,196.244125 
	C201.355896,196.474701 202.673752,194.131821 201.004120,189.001877 
z"/>
<path fill="#4E96D4" opacity="1.000000" stroke="none" 
	d="
M170.003754,176.451309 
	C174.785233,175.102066 179.564362,174.196198 184.970001,173.290375 
	C187.064331,175.192215 188.532166,177.093964 189.856079,179.294785 
	C187.141846,182.062790 184.571533,184.531754 181.819702,186.672333 
	C177.762115,185.562820 173.886063,184.781723 170.009979,184.000610 
	C170.007126,181.631973 170.004272,179.263321 170.003754,176.451309 
z"/>
<path fill="#4890D9" opacity="1.000000" stroke="none" 
	d="
M170.006958,184.465210 
	C173.886063,184.781723 177.762115,185.562820 181.670013,186.967773 
	C180.134140,189.393982 178.566452,191.196381 176.998779,192.998779 
	C174.899841,194.642899 172.800903,196.287033 170.358810,197.972229 
	C170.011749,193.652145 170.007828,189.290970 170.006958,184.465210 
z"/>
<path fill="#72B9AB" opacity="1.000000" stroke="none" 
	d="
M33.993752,130.014206 
	C33.993752,130.014206 33.503548,130.011353 33.258610,130.011566 
	C33.008869,127.309647 33.004066,124.607529 33.469051,121.453659 
	C43.293251,121.000557 52.647659,120.999214 62.002075,120.997864 
	C62.005611,123.366257 62.009148,125.734650 61.555458,128.550323 
	C53.610157,129.658539 46.120941,128.909439 38.634609,129.045074 
	C37.082314,129.073181 35.540432,129.676163 33.993752,130.014206 
z"/>
<path fill="#77BCA5" opacity="1.000000" stroke="none" 
	d="
M62.005859,120.553879 
	C52.647659,120.999214 43.293251,121.000557 33.470413,121.003845 
	C32.998993,118.636032 32.995998,116.266258 32.995438,113.453369 
	C42.353268,113.006744 51.708668,113.003250 61.532936,112.998810 
	C62.004417,115.368546 62.007034,117.739220 62.005859,120.553879 
z"/>
<path fill="#6EB3AF" opacity="1.000000" stroke="none" 
	d="
M33.997032,130.361420 
	C35.540432,129.676163 37.082314,129.073181 38.634609,129.045074 
	C46.120941,128.909439 53.610157,129.658539 61.549458,128.993912 
	C61.999550,129.753967 61.998413,130.517715 61.976959,131.664185 
	C61.650261,132.500397 61.343887,132.953873 61.011482,133.696167 
	C60.544277,133.989975 60.103104,133.994980 59.330963,134.003357 
	C57.079071,133.712189 54.762787,132.582657 53.307526,133.271683 
	C47.811142,135.874039 42.374588,134.989075 36.411583,134.010742 
	C35.322182,132.912506 34.661243,131.810577 33.997032,130.361420 
z"/>
<path fill="#3F89E3" opacity="1.000000" stroke="none" 
	d="
M106.490067,214.022171 
	C105.856117,214.022247 105.688271,214.014359 105.268654,214.001022 
	C103.775230,211.866852 102.533585,209.738129 101.289192,206.982803 
	C103.061234,202.945541 105.790863,202.333344 109.201256,203.620041 
	C110.262810,204.020538 111.416267,204.737625 112.433640,204.602417 
	C118.232506,203.831802 124.002953,202.847351 129.628387,201.959946 
	C133.078354,206.888794 133.026825,206.853867 136.356964,201.940735 
	C136.776840,201.321289 138.078827,201.299759 138.972122,201.001221 
	C138.975586,201.748169 138.979050,202.495132 138.975632,203.615448 
	C134.863815,212.095978 128.105026,214.839340 119.344887,214.067245 
	C115.245598,213.705963 111.087585,214.011093 106.490067,214.022171 
z"/>
<path fill="#4B92D8" opacity="1.000000" stroke="none" 
	d="
M107.995117,188.996582 
	C107.995628,188.829819 107.996132,188.663071 108.279297,188.109955 
	C108.690071,186.475891 108.818184,185.228180 108.946289,183.980484 
	C109.298973,182.579849 109.651649,181.179214 110.388260,179.346497 
	C120.173866,179.612137 129.575531,180.309845 138.977203,181.007568 
	C138.843613,184.811813 138.710037,188.616058 138.014008,192.514343 
	C136.442307,191.397522 135.433060,190.186676 134.423798,188.975830 
	C134.306366,189.574356 134.188919,190.172882 134.071487,190.771408 
	C125.680878,191.079727 117.290276,191.388046 108.337349,191.717026 
	C108.306282,191.470078 108.150703,190.233322 107.995117,188.996582 
z"/>
<path fill="#5199D0" opacity="1.000000" stroke="none" 
	d="
M138.984619,180.548920 
	C129.575531,180.309845 120.173866,179.612137 110.396194,178.958282 
	C110.011269,175.642181 110.002342,172.282227 109.997986,168.465103 
	C117.548279,168.032211 125.097527,167.938202 132.637207,168.163956 
	C134.520416,168.220337 136.372772,169.306976 138.614014,169.968277 
	C138.989822,173.374390 138.990936,176.732315 138.984619,180.548920 
z"/>
<path fill="#4087CA" opacity="1.000000" stroke="none" 
	d="
M108.714722,183.988464 
	C108.818184,185.228180 108.690071,186.475891 108.279755,187.859802 
	C107.347672,187.225937 106.697800,186.455826 106.012939,185.372345 
	C106.540382,184.877579 107.102806,184.696182 107.843185,184.273590 
	C108.021126,184.032379 108.483154,183.996445 108.714722,183.988464 
z"/>
<path fill="#4E96D4" opacity="1.000000" stroke="none" 
	d="
M275.000885,184.548981 
	C271.724091,184.999191 268.433899,184.806488 265.175842,185.047913 
	C260.918182,185.363434 257.189545,185.043747 255.366669,180.070358 
	C257.030518,178.999084 258.971344,177.463699 261.106781,177.112839 
	C265.400879,176.407318 269.801086,176.347580 274.580566,176.012100 
	C275.003052,178.701614 275.002411,181.400406 275.000885,184.548981 
z"/>
<path fill="#4E96D4" opacity="1.000000" stroke="none" 
	d="
M254.650070,179.943115 
	C254.998718,180.333023 255.061874,180.679367 254.989563,180.994644 
	C254.542313,182.944489 254.064606,184.887329 253.597000,186.832504 
	C251.510330,186.100006 249.423660,185.367493 247.167236,184.312195 
	C246.998474,181.292023 246.999451,178.594635 247.002045,175.447098 
	C249.436432,176.626358 251.869202,178.255768 254.650070,179.943115 
z"/>
<path fill="#448DDF" opacity="1.000000" stroke="none" 
	d="
M107.650421,189.035141 
	C108.150703,190.233322 108.306282,191.470078 108.337349,191.717026 
	C117.290276,191.388046 125.680878,191.079727 134.071487,190.771408 
	C134.188919,190.172882 134.306366,189.574356 134.423798,188.975830 
	C135.433060,190.186676 136.442307,191.397522 137.719940,192.803299 
	C138.321930,195.394089 138.655533,197.789932 138.980621,200.593506 
	C138.078827,201.299759 136.776840,201.321289 136.356964,201.940735 
	C133.026825,206.853867 133.078354,206.888794 129.628387,201.959946 
	C124.002953,202.847351 118.232506,203.831802 112.433640,204.602417 
	C111.416267,204.737625 110.262810,204.020538 109.201256,203.620041 
	C105.790863,202.333344 103.061234,202.945541 101.139442,206.681610 
	C99.329910,205.253052 97.667381,203.499069 95.999878,201.381561 
	C99.765167,197.036591 103.535446,193.055145 107.650421,189.035141 
z"/>
<path fill="#3E7DCD" opacity="1.000000" stroke="none" 
	d="
M222.208878,214.280502 
	C221.999557,214.021118 222.492142,213.995056 223.073059,213.995972 
	C224.099533,214.000061 224.545074,214.003220 224.990616,214.006378 
	C224.990616,214.006378 225.001602,214.500946 225.009033,214.748138 
	C224.150391,214.843506 223.284286,214.691696 222.208878,214.280502 
z"/>
<path fill="#E1F0FD" opacity="1.000000" stroke="none" 
	d="
M183.654388,216.156372 
	C183.943512,216.200363 183.965866,216.602982 183.977722,216.804321 
	C183.504242,216.973999 183.018890,216.942337 182.184204,216.796402 
	C182.344986,216.492203 182.855118,216.302292 183.654388,216.156372 
z"/>
<path fill="#448DDF" opacity="1.000000" stroke="none" 
	d="
M224.968811,213.684204 
	C224.545074,214.003220 224.099533,214.000061 223.319580,213.987579 
	C222.294678,212.309006 221.960571,210.336700 220.846985,209.027267 
	C217.491531,205.081680 213.832840,201.394012 210.143646,197.305161 
	C211.290619,193.985321 213.348053,192.694626 216.844971,192.888901 
	C220.250229,193.078110 224.639801,190.869278 226.957031,192.324692 
	C232.864990,196.035416 237.840836,192.293030 243.597748,192.003906 
	C240.360596,195.771713 236.716232,199.538757 233.032776,203.650452 
	C229.453140,206.380081 225.026901,208.004181 224.968811,213.684204 
z"/>
<path fill="#5498DD" opacity="1.000000" stroke="none" 
	d="
M177.040039,193.370819 
	C178.566452,191.196381 180.134140,189.393982 181.851532,187.296158 
	C184.571533,184.531754 187.141846,182.062790 190.189331,179.294495 
	C191.110809,178.994019 191.555130,178.992905 192.036224,179.342941 
	C194.047867,181.462433 196.022705,183.230789 197.997559,184.999146 
	C198.909271,186.143570 199.820999,187.287994 200.868423,188.717133 
	C202.673752,194.131821 201.355896,196.474701 195.432983,196.244125 
	C191.454498,196.089233 187.435928,197.503159 183.406067,197.953552 
	C180.284363,198.302429 177.917007,197.056686 177.040039,193.370819 
z"/>
<path fill="#4E96D4" opacity="1.000000" stroke="none" 
	d="
M197.998718,184.663849 
	C196.022705,183.230789 194.047867,181.462433 192.070786,178.999268 
	C194.058380,176.531082 196.048187,174.757721 198.038010,172.984344 
	C198.061172,176.058426 198.084335,179.132507 198.058441,182.596741 
	C198.006241,183.434097 198.003067,183.881332 197.998718,184.663849 
z"/>
<path fill="#4995C7" opacity="1.000000" stroke="none" 
	d="
M198.197815,172.607239 
	C196.048187,174.757721 194.058380,176.531082 192.033997,178.648132 
	C191.555130,178.992905 191.110809,178.994019 190.333252,178.995422 
	C188.532166,177.093964 187.064331,175.192215 185.297104,173.144073 
	C182.428665,170.198318 179.859619,167.398911 177.144638,164.301636 
	C179.954559,163.346512 182.884079,162.504318 185.872925,162.078705 
	C189.630569,161.543610 193.436783,161.349365 197.848694,161.001740 
	C198.475342,160.995453 198.942184,161.007843 198.942169,161.007843 
	C198.747330,164.748611 198.552490,168.489365 198.197815,172.607239 
z"/>
<path fill="#57A3B9" opacity="1.000000" stroke="none" 
	d="
M198.956879,160.676270 
	C198.942184,161.007843 198.475342,160.995453 198.242004,160.990097 
	C198.166855,160.442612 198.325058,159.900497 198.714706,159.188751 
	C198.954620,159.460999 198.963104,159.902863 198.956879,160.676270 
z"/>
</svg>